<mxfile host="Electron" agent="Mozilla/5.0 (Windows NT 10.0; Win64; x64) AppleWebKit/537.36 (KHTML, like Gecko) draw.io/24.7.8 Chrome/128.0.6613.36 Electron/32.0.1 Safari/537.36" version="24.7.8">
  <diagram name="diagram" id="Dv0DjW6ODSodo622jdhD">
    <mxGraphModel dx="1395" dy="697" grid="1" gridSize="10" guides="1" tooltips="1" connect="1" arrows="1" fold="1" page="1" pageScale="1" pageWidth="850" pageHeight="1100" math="0" shadow="0">
      <root>
        <mxCell id="0" />
        <mxCell id="1" parent="0" />
        <mxCell id="mtToMyqUitV6mDAlZwtL-11" value="" style="group" vertex="1" connectable="0" parent="1">
          <mxGeometry x="170" y="80" width="510" height="570" as="geometry" />
        </mxCell>
        <mxCell id="mtToMyqUitV6mDAlZwtL-8" value="" style="rounded=0;whiteSpace=wrap;html=1;movable=1;resizable=1;rotatable=1;deletable=1;editable=1;locked=0;connectable=1;" vertex="1" parent="mtToMyqUitV6mDAlZwtL-11">
          <mxGeometry width="510" height="570" as="geometry" />
        </mxCell>
        <mxCell id="mtToMyqUitV6mDAlZwtL-9" value="&lt;b&gt;SYSTEM&lt;/b&gt;" style="text;html=1;align=center;verticalAlign=middle;whiteSpace=wrap;rounded=0;" vertex="1" parent="mtToMyqUitV6mDAlZwtL-11">
          <mxGeometry x="214.73684210526315" y="10.4" width="80.52631578947368" height="31.200000000000003" as="geometry" />
        </mxCell>
        <mxCell id="mtToMyqUitV6mDAlZwtL-30" value="quản lý tài khoản" style="ellipse;whiteSpace=wrap;html=1;fillColor=#FFDD00;" vertex="1" parent="mtToMyqUitV6mDAlZwtL-11">
          <mxGeometry x="170" y="220" width="150" height="50" as="geometry" />
        </mxCell>
        <mxCell id="mtToMyqUitV6mDAlZwtL-31" value="quản lý môn học" style="ellipse;whiteSpace=wrap;html=1;fillColor=#FFDD00;" vertex="1" parent="mtToMyqUitV6mDAlZwtL-11">
          <mxGeometry x="40" y="20" width="150" height="50" as="geometry" />
        </mxCell>
        <mxCell id="mtToMyqUitV6mDAlZwtL-32" value="xem môn học" style="ellipse;whiteSpace=wrap;html=1;fillColor=#FFDD00;" vertex="1" parent="mtToMyqUitV6mDAlZwtL-11">
          <mxGeometry x="170" y="420" width="150" height="50" as="geometry" />
        </mxCell>
        <mxCell id="mtToMyqUitV6mDAlZwtL-33" value="quản lý thông tin lớp học" style="ellipse;whiteSpace=wrap;html=1;fillColor=#FFDD00;" vertex="1" parent="mtToMyqUitV6mDAlZwtL-11">
          <mxGeometry x="110" y="150" width="150" height="50" as="geometry" />
        </mxCell>
        <mxCell id="mtToMyqUitV6mDAlZwtL-34" value="xem thông tin lớp học" style="ellipse;whiteSpace=wrap;html=1;fillColor=#FFDD00;" vertex="1" parent="mtToMyqUitV6mDAlZwtL-11">
          <mxGeometry x="170" y="350" width="150" height="50" as="geometry" />
        </mxCell>
        <mxCell id="mtToMyqUitV6mDAlZwtL-35" value="quản lý thông báo" style="ellipse;whiteSpace=wrap;html=1;fillColor=#FFDD00;" vertex="1" parent="mtToMyqUitV6mDAlZwtL-11">
          <mxGeometry x="64.74000000000001" y="90" width="150" height="50" as="geometry" />
        </mxCell>
        <mxCell id="mtToMyqUitV6mDAlZwtL-36" value="xem thông báo" style="ellipse;whiteSpace=wrap;html=1;fillColor=#FFDD00;" vertex="1" parent="mtToMyqUitV6mDAlZwtL-11">
          <mxGeometry x="170" y="285" width="150" height="50" as="geometry" />
        </mxCell>
        <mxCell id="mtToMyqUitV6mDAlZwtL-37" value="quản lý thông tin &lt;br&gt;lớp quản lý" style="ellipse;whiteSpace=wrap;html=1;fillColor=#FFDD00;" vertex="1" parent="mtToMyqUitV6mDAlZwtL-11">
          <mxGeometry x="230" y="60" width="150" height="50" as="geometry" />
        </mxCell>
        <mxCell id="mtToMyqUitV6mDAlZwtL-38" value="xem thông tin lớp quản lý" style="ellipse;whiteSpace=wrap;html=1;fillColor=#FFDD00;" vertex="1" parent="mtToMyqUitV6mDAlZwtL-11">
          <mxGeometry x="180" y="480" width="150" height="50" as="geometry" />
        </mxCell>
        <mxCell id="mtToMyqUitV6mDAlZwtL-39" value="xem học phí" style="ellipse;whiteSpace=wrap;html=1;fillColor=#FFDD00;" vertex="1" parent="mtToMyqUitV6mDAlZwtL-11">
          <mxGeometry x="295.26" y="150" width="110" height="50" as="geometry" />
        </mxCell>
        <mxCell id="mtToMyqUitV6mDAlZwtL-41" value="cảnh báo, đình chỉ tự động" style="ellipse;whiteSpace=wrap;html=1;fillColor=#FFDD00;" vertex="1" parent="mtToMyqUitV6mDAlZwtL-11">
          <mxGeometry x="370" y="495" width="110" height="50" as="geometry" />
        </mxCell>
        <mxCell id="mtToMyqUitV6mDAlZwtL-43" value="xem lịch thi, điểm" style="ellipse;whiteSpace=wrap;html=1;fillColor=#FFDD00;" vertex="1" parent="mtToMyqUitV6mDAlZwtL-11">
          <mxGeometry x="380" y="100" width="110" height="50" as="geometry" />
        </mxCell>
        <mxCell id="mtToMyqUitV6mDAlZwtL-40" value="điểm danh" style="ellipse;whiteSpace=wrap;html=1;fillColor=#FFDD00;" vertex="1" parent="mtToMyqUitV6mDAlZwtL-11">
          <mxGeometry x="30" y="495" width="110" height="50" as="geometry" />
        </mxCell>
        <mxCell id="mtToMyqUitV6mDAlZwtL-42" value="quản lý thi cử" style="ellipse;whiteSpace=wrap;html=1;fillColor=#FFDD00;" vertex="1" parent="mtToMyqUitV6mDAlZwtL-11">
          <mxGeometry x="20" y="220" width="110" height="50" as="geometry" />
        </mxCell>
        <mxCell id="mtToMyqUitV6mDAlZwtL-53" style="edgeStyle=none;rounded=0;orthogonalLoop=1;jettySize=auto;html=1;entryX=1;entryY=0.5;entryDx=0;entryDy=0;" edge="1" parent="1" source="mtToMyqUitV6mDAlZwtL-1" target="mtToMyqUitV6mDAlZwtL-30">
          <mxGeometry relative="1" as="geometry" />
        </mxCell>
        <mxCell id="mtToMyqUitV6mDAlZwtL-56" style="edgeStyle=none;rounded=0;orthogonalLoop=1;jettySize=auto;html=1;entryX=1;entryY=0.5;entryDx=0;entryDy=0;" edge="1" parent="1" source="mtToMyqUitV6mDAlZwtL-1" target="mtToMyqUitV6mDAlZwtL-32">
          <mxGeometry relative="1" as="geometry" />
        </mxCell>
        <mxCell id="mtToMyqUitV6mDAlZwtL-59" style="edgeStyle=none;rounded=0;orthogonalLoop=1;jettySize=auto;html=1;entryX=1;entryY=0.5;entryDx=0;entryDy=0;" edge="1" parent="1" source="mtToMyqUitV6mDAlZwtL-1" target="mtToMyqUitV6mDAlZwtL-34">
          <mxGeometry relative="1" as="geometry" />
        </mxCell>
        <mxCell id="mtToMyqUitV6mDAlZwtL-70" style="edgeStyle=none;rounded=0;orthogonalLoop=1;jettySize=auto;html=1;entryX=1;entryY=0.5;entryDx=0;entryDy=0;" edge="1" parent="1" source="mtToMyqUitV6mDAlZwtL-1" target="mtToMyqUitV6mDAlZwtL-39">
          <mxGeometry relative="1" as="geometry" />
        </mxCell>
        <mxCell id="mtToMyqUitV6mDAlZwtL-71" style="edgeStyle=none;rounded=0;orthogonalLoop=1;jettySize=auto;html=1;entryX=1;entryY=0.5;entryDx=0;entryDy=0;" edge="1" parent="1" source="mtToMyqUitV6mDAlZwtL-1" target="mtToMyqUitV6mDAlZwtL-43">
          <mxGeometry relative="1" as="geometry" />
        </mxCell>
        <mxCell id="mtToMyqUitV6mDAlZwtL-1" value="student" style="shape=umlActor;verticalLabelPosition=bottom;verticalAlign=top;html=1;outlineConnect=0;" vertex="1" parent="1">
          <mxGeometry x="740" y="360" width="30" height="60" as="geometry" />
        </mxCell>
        <mxCell id="mtToMyqUitV6mDAlZwtL-60" style="edgeStyle=none;rounded=0;orthogonalLoop=1;jettySize=auto;html=1;entryX=0;entryY=0.5;entryDx=0;entryDy=0;" edge="1" parent="1" source="mtToMyqUitV6mDAlZwtL-4" target="mtToMyqUitV6mDAlZwtL-34">
          <mxGeometry relative="1" as="geometry" />
        </mxCell>
        <mxCell id="mtToMyqUitV6mDAlZwtL-64" style="edgeStyle=none;rounded=0;orthogonalLoop=1;jettySize=auto;html=1;entryX=0;entryY=0.5;entryDx=0;entryDy=0;" edge="1" parent="1" source="mtToMyqUitV6mDAlZwtL-4" target="mtToMyqUitV6mDAlZwtL-36">
          <mxGeometry relative="1" as="geometry" />
        </mxCell>
        <mxCell id="mtToMyqUitV6mDAlZwtL-66" style="edgeStyle=none;rounded=0;orthogonalLoop=1;jettySize=auto;html=1;entryX=0;entryY=0.5;entryDx=0;entryDy=0;" edge="1" parent="1" source="mtToMyqUitV6mDAlZwtL-4" target="mtToMyqUitV6mDAlZwtL-38">
          <mxGeometry relative="1" as="geometry" />
        </mxCell>
        <mxCell id="mtToMyqUitV6mDAlZwtL-4" value="teacher" style="shape=umlActor;verticalLabelPosition=bottom;verticalAlign=top;html=1;outlineConnect=0;" vertex="1" parent="1">
          <mxGeometry x="70" y="410" width="30" height="60" as="geometry" />
        </mxCell>
        <mxCell id="mtToMyqUitV6mDAlZwtL-49" style="edgeStyle=none;rounded=0;orthogonalLoop=1;jettySize=auto;html=1;entryX=0;entryY=0.5;entryDx=0;entryDy=0;" edge="1" parent="1" source="mtToMyqUitV6mDAlZwtL-5" target="mtToMyqUitV6mDAlZwtL-30">
          <mxGeometry relative="1" as="geometry" />
        </mxCell>
        <mxCell id="mtToMyqUitV6mDAlZwtL-55" style="edgeStyle=none;rounded=0;orthogonalLoop=1;jettySize=auto;html=1;entryX=0;entryY=0.5;entryDx=0;entryDy=0;" edge="1" parent="1" source="mtToMyqUitV6mDAlZwtL-5" target="mtToMyqUitV6mDAlZwtL-31">
          <mxGeometry relative="1" as="geometry" />
        </mxCell>
        <mxCell id="mtToMyqUitV6mDAlZwtL-58" style="edgeStyle=none;rounded=0;orthogonalLoop=1;jettySize=auto;html=1;entryX=0;entryY=0.5;entryDx=0;entryDy=0;" edge="1" parent="1" source="mtToMyqUitV6mDAlZwtL-5" target="mtToMyqUitV6mDAlZwtL-33">
          <mxGeometry relative="1" as="geometry" />
        </mxCell>
        <mxCell id="mtToMyqUitV6mDAlZwtL-62" style="edgeStyle=none;rounded=0;orthogonalLoop=1;jettySize=auto;html=1;entryX=0;entryY=0.5;entryDx=0;entryDy=0;" edge="1" parent="1" source="mtToMyqUitV6mDAlZwtL-5" target="mtToMyqUitV6mDAlZwtL-35">
          <mxGeometry relative="1" as="geometry" />
        </mxCell>
        <mxCell id="mtToMyqUitV6mDAlZwtL-65" style="edgeStyle=none;rounded=0;orthogonalLoop=1;jettySize=auto;html=1;entryX=0;entryY=0.5;entryDx=0;entryDy=0;" edge="1" parent="1" source="mtToMyqUitV6mDAlZwtL-5" target="mtToMyqUitV6mDAlZwtL-37">
          <mxGeometry relative="1" as="geometry" />
        </mxCell>
        <mxCell id="mtToMyqUitV6mDAlZwtL-5" value="admin" style="shape=umlActor;verticalLabelPosition=bottom;verticalAlign=top;html=1;outlineConnect=0;" vertex="1" parent="1">
          <mxGeometry x="70" y="140" width="30" height="60" as="geometry" />
        </mxCell>
        <mxCell id="mtToMyqUitV6mDAlZwtL-69" style="edgeStyle=none;rounded=0;orthogonalLoop=1;jettySize=auto;html=1;entryX=1;entryY=0.5;entryDx=0;entryDy=0;" edge="1" parent="1" source="mtToMyqUitV6mDAlZwtL-15" target="mtToMyqUitV6mDAlZwtL-41">
          <mxGeometry relative="1" as="geometry" />
        </mxCell>
        <mxCell id="mtToMyqUitV6mDAlZwtL-15" value="hệ thống" style="shape=umlActor;verticalLabelPosition=bottom;verticalAlign=top;html=1;" vertex="1" parent="1">
          <mxGeometry x="750" y="570" width="30" height="60" as="geometry" />
        </mxCell>
        <mxCell id="mtToMyqUitV6mDAlZwtL-61" style="edgeStyle=none;rounded=0;orthogonalLoop=1;jettySize=auto;html=1;entryX=0.001;entryY=0.6;entryDx=0;entryDy=0;entryPerimeter=0;" edge="1" parent="1" source="mtToMyqUitV6mDAlZwtL-4" target="mtToMyqUitV6mDAlZwtL-30">
          <mxGeometry relative="1" as="geometry" />
        </mxCell>
        <mxCell id="mtToMyqUitV6mDAlZwtL-63" style="edgeStyle=none;rounded=0;orthogonalLoop=1;jettySize=auto;html=1;entryX=1;entryY=0.5;entryDx=0;entryDy=0;" edge="1" parent="1" source="mtToMyqUitV6mDAlZwtL-1" target="mtToMyqUitV6mDAlZwtL-36">
          <mxGeometry relative="1" as="geometry" />
        </mxCell>
        <mxCell id="mtToMyqUitV6mDAlZwtL-67" style="edgeStyle=none;rounded=0;orthogonalLoop=1;jettySize=auto;html=1;entryX=0.976;entryY=0.354;entryDx=0;entryDy=0;entryPerimeter=0;" edge="1" parent="1" source="mtToMyqUitV6mDAlZwtL-1" target="mtToMyqUitV6mDAlZwtL-38">
          <mxGeometry relative="1" as="geometry" />
        </mxCell>
        <mxCell id="mtToMyqUitV6mDAlZwtL-68" style="edgeStyle=none;rounded=0;orthogonalLoop=1;jettySize=auto;html=1;entryX=0.144;entryY=0.229;entryDx=0;entryDy=0;entryPerimeter=0;" edge="1" parent="1" source="mtToMyqUitV6mDAlZwtL-4" target="mtToMyqUitV6mDAlZwtL-40">
          <mxGeometry relative="1" as="geometry" />
        </mxCell>
        <mxCell id="mtToMyqUitV6mDAlZwtL-57" style="edgeStyle=none;rounded=0;orthogonalLoop=1;jettySize=auto;html=1;entryX=0;entryY=0.5;entryDx=0;entryDy=0;" edge="1" parent="1" source="mtToMyqUitV6mDAlZwtL-4" target="mtToMyqUitV6mDAlZwtL-32">
          <mxGeometry relative="1" as="geometry" />
        </mxCell>
        <mxCell id="mtToMyqUitV6mDAlZwtL-74" style="edgeStyle=none;rounded=0;orthogonalLoop=1;jettySize=auto;html=1;entryX=0.287;entryY=0.04;entryDx=0;entryDy=0;entryPerimeter=0;" edge="1" parent="1" source="mtToMyqUitV6mDAlZwtL-5" target="mtToMyqUitV6mDAlZwtL-42">
          <mxGeometry relative="1" as="geometry" />
        </mxCell>
        <mxCell id="mtToMyqUitV6mDAlZwtL-81" style="edgeStyle=none;rounded=0;orthogonalLoop=1;jettySize=auto;html=1;entryX=0;entryY=0;entryDx=0;entryDy=0;" edge="1" parent="1" source="mtToMyqUitV6mDAlZwtL-75" target="mtToMyqUitV6mDAlZwtL-80">
          <mxGeometry relative="1" as="geometry" />
        </mxCell>
        <mxCell id="mtToMyqUitV6mDAlZwtL-75" value="admin" style="shape=umlActor;verticalLabelPosition=bottom;verticalAlign=top;html=1;outlineConnect=0;" vertex="1" parent="1">
          <mxGeometry x="1025" y="60" width="30" height="60" as="geometry" />
        </mxCell>
        <mxCell id="mtToMyqUitV6mDAlZwtL-83" style="edgeStyle=none;rounded=0;orthogonalLoop=1;jettySize=auto;html=1;entryX=0;entryY=1;entryDx=0;entryDy=0;" edge="1" parent="1" source="mtToMyqUitV6mDAlZwtL-76" target="mtToMyqUitV6mDAlZwtL-80">
          <mxGeometry relative="1" as="geometry" />
        </mxCell>
        <mxCell id="mtToMyqUitV6mDAlZwtL-76" value="student" style="shape=umlActor;verticalLabelPosition=bottom;verticalAlign=top;html=1;outlineConnect=0;" vertex="1" parent="1">
          <mxGeometry x="1025" y="380" width="30" height="60" as="geometry" />
        </mxCell>
        <mxCell id="mtToMyqUitV6mDAlZwtL-82" style="edgeStyle=none;rounded=0;orthogonalLoop=1;jettySize=auto;html=1;entryX=0;entryY=0.5;entryDx=0;entryDy=0;" edge="1" parent="1" source="mtToMyqUitV6mDAlZwtL-78" target="mtToMyqUitV6mDAlZwtL-80">
          <mxGeometry relative="1" as="geometry" />
        </mxCell>
        <mxCell id="mtToMyqUitV6mDAlZwtL-78" value="teacher" style="shape=umlActor;verticalLabelPosition=bottom;verticalAlign=top;html=1;outlineConnect=0;" vertex="1" parent="1">
          <mxGeometry x="1025" y="220" width="30" height="60" as="geometry" />
        </mxCell>
        <mxCell id="mtToMyqUitV6mDAlZwtL-79" value="uc quản lý tài khoản" style="shape=umlFrame;whiteSpace=wrap;html=1;pointerEvents=0;fillColor=#FFFFFF;width=120;height=20;strokeColor=#000000;" vertex="1" parent="1">
          <mxGeometry x="975" y="20" width="600" height="500" as="geometry" />
        </mxCell>
        <mxCell id="mtToMyqUitV6mDAlZwtL-80" value="quản lý tài khoản" style="ellipse;whiteSpace=wrap;html=1;fillColor=#FFDD00;" vertex="1" parent="1">
          <mxGeometry x="1155" y="215" width="140" height="70" as="geometry" />
        </mxCell>
        <mxCell id="mtToMyqUitV6mDAlZwtL-84" value="đăng nhập" style="ellipse;whiteSpace=wrap;html=1;fillColor=#FFDD00;" vertex="1" parent="1">
          <mxGeometry x="1375" y="90" width="140" height="70" as="geometry" />
        </mxCell>
        <mxCell id="mtToMyqUitV6mDAlZwtL-86" value="đăng xuất" style="ellipse;whiteSpace=wrap;html=1;fillColor=#FFDD00;" vertex="1" parent="1">
          <mxGeometry x="1375" y="180" width="140" height="70" as="geometry" />
        </mxCell>
        <mxCell id="mtToMyqUitV6mDAlZwtL-87" value="quản lý thông tin cá nhân" style="ellipse;whiteSpace=wrap;html=1;fillColor=#FFDD00;" vertex="1" parent="1">
          <mxGeometry x="1375" y="350" width="140" height="70" as="geometry" />
        </mxCell>
        <mxCell id="mtToMyqUitV6mDAlZwtL-89" value="&amp;lt;&amp;lt;extend&amp;gt;&amp;gt;" style="html=1;verticalAlign=bottom;labelBackgroundColor=none;endArrow=open;endFill=0;dashed=1;rounded=0;exitX=0;exitY=0.5;exitDx=0;exitDy=0;entryX=1;entryY=0;entryDx=0;entryDy=0;" edge="1" parent="1" source="mtToMyqUitV6mDAlZwtL-84" target="mtToMyqUitV6mDAlZwtL-80">
          <mxGeometry width="160" relative="1" as="geometry">
            <mxPoint x="1225" y="210" as="sourcePoint" />
            <mxPoint x="1385" y="210" as="targetPoint" />
          </mxGeometry>
        </mxCell>
        <mxCell id="mtToMyqUitV6mDAlZwtL-90" value="&amp;lt;&amp;lt;extend&amp;gt;&amp;gt;" style="html=1;verticalAlign=bottom;labelBackgroundColor=none;endArrow=open;endFill=0;dashed=1;rounded=0;exitX=0;exitY=0.5;exitDx=0;exitDy=0;entryX=1;entryY=0.5;entryDx=0;entryDy=0;" edge="1" parent="1" source="mtToMyqUitV6mDAlZwtL-86" target="mtToMyqUitV6mDAlZwtL-80">
          <mxGeometry x="-0.0075" width="160" relative="1" as="geometry">
            <mxPoint x="1385" y="135" as="sourcePoint" />
            <mxPoint x="1284" y="235" as="targetPoint" />
            <mxPoint as="offset" />
          </mxGeometry>
        </mxCell>
        <mxCell id="mtToMyqUitV6mDAlZwtL-91" value="&amp;lt;&amp;lt;extend&amp;gt;&amp;gt;" style="html=1;verticalAlign=bottom;labelBackgroundColor=none;endArrow=open;endFill=0;dashed=1;rounded=0;exitX=0.024;exitY=0.34;exitDx=0;exitDy=0;entryX=0.839;entryY=0.856;entryDx=0;entryDy=0;exitPerimeter=0;entryPerimeter=0;" edge="1" parent="1" source="mtToMyqUitV6mDAlZwtL-87" target="mtToMyqUitV6mDAlZwtL-80">
          <mxGeometry width="160" relative="1" as="geometry">
            <mxPoint x="1385" y="260" as="sourcePoint" />
            <mxPoint x="1305" y="260" as="targetPoint" />
          </mxGeometry>
        </mxCell>
        <mxCell id="mtToMyqUitV6mDAlZwtL-92" value="đổi mật khẩu" style="ellipse;whiteSpace=wrap;html=1;fillColor=#FFDD00;" vertex="1" parent="1">
          <mxGeometry x="1375" y="260" width="140" height="70" as="geometry" />
        </mxCell>
        <mxCell id="mtToMyqUitV6mDAlZwtL-93" value="&amp;lt;&amp;lt;extend&amp;gt;&amp;gt;" style="html=1;verticalAlign=bottom;labelBackgroundColor=none;endArrow=open;endFill=0;dashed=1;rounded=0;exitX=0;exitY=0.5;exitDx=0;exitDy=0;entryX=0.964;entryY=0.682;entryDx=0;entryDy=0;entryPerimeter=0;" edge="1" parent="1" source="mtToMyqUitV6mDAlZwtL-92" target="mtToMyqUitV6mDAlZwtL-80">
          <mxGeometry x="-0.0075" width="160" relative="1" as="geometry">
            <mxPoint x="1385" y="225" as="sourcePoint" />
            <mxPoint x="1305" y="260" as="targetPoint" />
            <mxPoint as="offset" />
          </mxGeometry>
        </mxCell>
        <mxCell id="mtToMyqUitV6mDAlZwtL-94" value="uc quản lý môn học" style="shape=umlFrame;whiteSpace=wrap;html=1;pointerEvents=0;fillColor=#FFFFFF;width=120;height=20;strokeColor=#000000;" vertex="1" parent="1">
          <mxGeometry x="975" y="560" width="600" height="500" as="geometry" />
        </mxCell>
        <mxCell id="mtToMyqUitV6mDAlZwtL-101" style="edgeStyle=none;rounded=0;orthogonalLoop=1;jettySize=auto;html=1;entryX=0;entryY=0.5;entryDx=0;entryDy=0;" edge="1" parent="1" source="mtToMyqUitV6mDAlZwtL-95" target="mtToMyqUitV6mDAlZwtL-96">
          <mxGeometry relative="1" as="geometry" />
        </mxCell>
        <mxCell id="mtToMyqUitV6mDAlZwtL-95" value="admin" style="shape=umlActor;verticalLabelPosition=bottom;verticalAlign=top;html=1;outlineConnect=0;" vertex="1" parent="1">
          <mxGeometry x="1025" y="780" width="30" height="60" as="geometry" />
        </mxCell>
        <mxCell id="mtToMyqUitV6mDAlZwtL-96" value="quản lý môn học" style="ellipse;whiteSpace=wrap;html=1;fillColor=#FFDD00;" vertex="1" parent="1">
          <mxGeometry x="1145" y="775" width="140" height="70" as="geometry" />
        </mxCell>
        <mxCell id="mtToMyqUitV6mDAlZwtL-97" value="thêm mới môn học" style="ellipse;whiteSpace=wrap;html=1;fillColor=#FFDD00;" vertex="1" parent="1">
          <mxGeometry x="1365" y="610" width="140" height="70" as="geometry" />
        </mxCell>
        <mxCell id="mtToMyqUitV6mDAlZwtL-98" value="xem chi tiết môn học" style="ellipse;whiteSpace=wrap;html=1;fillColor=#FFDD00;" vertex="1" parent="1">
          <mxGeometry x="1365" y="720" width="140" height="70" as="geometry" />
        </mxCell>
        <mxCell id="mtToMyqUitV6mDAlZwtL-99" value="sửa thông tin môn học" style="ellipse;whiteSpace=wrap;html=1;fillColor=#FFDD00;" vertex="1" parent="1">
          <mxGeometry x="1365" y="820" width="140" height="70" as="geometry" />
        </mxCell>
        <mxCell id="mtToMyqUitV6mDAlZwtL-100" value="xóa môn học" style="ellipse;whiteSpace=wrap;html=1;fillColor=#FFDD00;" vertex="1" parent="1">
          <mxGeometry x="1365" y="920" width="140" height="70" as="geometry" />
        </mxCell>
        <mxCell id="mtToMyqUitV6mDAlZwtL-102" value="&amp;lt;&amp;lt;extend&amp;gt;&amp;gt;" style="html=1;verticalAlign=bottom;labelBackgroundColor=none;endArrow=open;endFill=0;dashed=1;rounded=0;exitX=0.036;exitY=0.686;exitDx=0;exitDy=0;entryX=0.81;entryY=0.102;entryDx=0;entryDy=0;exitPerimeter=0;entryPerimeter=0;" edge="1" parent="1" source="mtToMyqUitV6mDAlZwtL-97" target="mtToMyqUitV6mDAlZwtL-96">
          <mxGeometry x="-0.0075" width="160" relative="1" as="geometry">
            <mxPoint x="1345" y="685" as="sourcePoint" />
            <mxPoint x="1265" y="720" as="targetPoint" />
            <mxPoint as="offset" />
          </mxGeometry>
        </mxCell>
        <mxCell id="mtToMyqUitV6mDAlZwtL-104" value="&amp;lt;&amp;lt;extend&amp;gt;&amp;gt;" style="html=1;verticalAlign=bottom;labelBackgroundColor=none;endArrow=open;endFill=0;dashed=1;rounded=0;exitX=0;exitY=0.5;exitDx=0;exitDy=0;entryX=0.97;entryY=0.293;entryDx=0;entryDy=0;entryPerimeter=0;" edge="1" parent="1" source="mtToMyqUitV6mDAlZwtL-98" target="mtToMyqUitV6mDAlZwtL-96">
          <mxGeometry x="-0.0075" width="160" relative="1" as="geometry">
            <mxPoint x="1380" y="668" as="sourcePoint" />
            <mxPoint x="1268" y="792" as="targetPoint" />
            <mxPoint as="offset" />
          </mxGeometry>
        </mxCell>
        <mxCell id="mtToMyqUitV6mDAlZwtL-105" value="&amp;lt;&amp;lt;extend&amp;gt;&amp;gt;" style="html=1;verticalAlign=bottom;labelBackgroundColor=none;endArrow=open;endFill=0;dashed=1;rounded=0;exitX=0;exitY=0.4;exitDx=0;exitDy=0;entryX=0.97;entryY=0.745;entryDx=0;entryDy=0;entryPerimeter=0;exitPerimeter=0;" edge="1" parent="1" source="mtToMyqUitV6mDAlZwtL-99" target="mtToMyqUitV6mDAlZwtL-96">
          <mxGeometry x="-0.0075" width="160" relative="1" as="geometry">
            <mxPoint x="1375" y="765" as="sourcePoint" />
            <mxPoint x="1292" y="806" as="targetPoint" />
            <mxPoint as="offset" />
          </mxGeometry>
        </mxCell>
        <mxCell id="mtToMyqUitV6mDAlZwtL-106" value="&amp;lt;&amp;lt;extend&amp;gt;&amp;gt;" style="html=1;verticalAlign=bottom;labelBackgroundColor=none;endArrow=open;endFill=0;dashed=1;rounded=0;exitX=0;exitY=0;exitDx=0;exitDy=0;entryX=0.786;entryY=0.936;entryDx=0;entryDy=0;entryPerimeter=0;" edge="1" parent="1" source="mtToMyqUitV6mDAlZwtL-100" target="mtToMyqUitV6mDAlZwtL-96">
          <mxGeometry x="-0.0075" width="160" relative="1" as="geometry">
            <mxPoint x="1375" y="858" as="sourcePoint" />
            <mxPoint x="1291" y="837" as="targetPoint" />
            <mxPoint as="offset" />
          </mxGeometry>
        </mxCell>
        <mxCell id="mtToMyqUitV6mDAlZwtL-107" value="uc quản lý thông tin lớp học" style="shape=umlFrame;whiteSpace=wrap;html=1;pointerEvents=0;fillColor=#FFFFFF;width=115;height=40;strokeColor=#000000;" vertex="1" parent="1">
          <mxGeometry x="888" y="1130" width="775" height="500" as="geometry" />
        </mxCell>
        <mxCell id="mtToMyqUitV6mDAlZwtL-108" style="edgeStyle=none;rounded=0;orthogonalLoop=1;jettySize=auto;html=1;entryX=0;entryY=0.5;entryDx=0;entryDy=0;" edge="1" source="mtToMyqUitV6mDAlZwtL-109" target="mtToMyqUitV6mDAlZwtL-110" parent="1">
          <mxGeometry relative="1" as="geometry" />
        </mxCell>
        <mxCell id="mtToMyqUitV6mDAlZwtL-109" value="admin" style="shape=umlActor;verticalLabelPosition=bottom;verticalAlign=top;html=1;outlineConnect=0;" vertex="1" parent="1">
          <mxGeometry x="938" y="1350" width="30" height="60" as="geometry" />
        </mxCell>
        <mxCell id="mtToMyqUitV6mDAlZwtL-110" value="quản lý thông tin lớp học" style="ellipse;whiteSpace=wrap;html=1;fillColor=#FFDD00;" vertex="1" parent="1">
          <mxGeometry x="1058" y="1345" width="140" height="70" as="geometry" />
        </mxCell>
        <mxCell id="mtToMyqUitV6mDAlZwtL-111" value="thêm mới lớp học" style="ellipse;whiteSpace=wrap;html=1;fillColor=#FFDD00;" vertex="1" parent="1">
          <mxGeometry x="1278" y="1180" width="140" height="70" as="geometry" />
        </mxCell>
        <mxCell id="mtToMyqUitV6mDAlZwtL-112" value="xem chi tiết thông tin &lt;br&gt;lớp học" style="ellipse;whiteSpace=wrap;html=1;fillColor=#FFDD00;" vertex="1" parent="1">
          <mxGeometry x="1278" y="1290" width="140" height="70" as="geometry" />
        </mxCell>
        <mxCell id="mtToMyqUitV6mDAlZwtL-113" value="sửa thông tin lớp học" style="ellipse;whiteSpace=wrap;html=1;fillColor=#FFDD00;" vertex="1" parent="1">
          <mxGeometry x="1278" y="1390" width="140" height="70" as="geometry" />
        </mxCell>
        <mxCell id="mtToMyqUitV6mDAlZwtL-114" value="xóa lớp" style="ellipse;whiteSpace=wrap;html=1;fillColor=#FFDD00;" vertex="1" parent="1">
          <mxGeometry x="1278" y="1490" width="140" height="70" as="geometry" />
        </mxCell>
        <mxCell id="mtToMyqUitV6mDAlZwtL-115" value="&amp;lt;&amp;lt;extend&amp;gt;&amp;gt;" style="html=1;verticalAlign=bottom;labelBackgroundColor=none;endArrow=open;endFill=0;dashed=1;rounded=0;exitX=0.036;exitY=0.686;exitDx=0;exitDy=0;entryX=0.81;entryY=0.102;entryDx=0;entryDy=0;exitPerimeter=0;entryPerimeter=0;" edge="1" source="mtToMyqUitV6mDAlZwtL-111" target="mtToMyqUitV6mDAlZwtL-110" parent="1">
          <mxGeometry x="-0.0075" width="160" relative="1" as="geometry">
            <mxPoint x="1258" y="1255" as="sourcePoint" />
            <mxPoint x="1178" y="1290" as="targetPoint" />
            <mxPoint as="offset" />
          </mxGeometry>
        </mxCell>
        <mxCell id="mtToMyqUitV6mDAlZwtL-116" value="&amp;lt;&amp;lt;extend&amp;gt;&amp;gt;" style="html=1;verticalAlign=bottom;labelBackgroundColor=none;endArrow=open;endFill=0;dashed=1;rounded=0;exitX=0;exitY=0.5;exitDx=0;exitDy=0;entryX=0.97;entryY=0.293;entryDx=0;entryDy=0;entryPerimeter=0;" edge="1" source="mtToMyqUitV6mDAlZwtL-112" target="mtToMyqUitV6mDAlZwtL-110" parent="1">
          <mxGeometry x="-0.0075" width="160" relative="1" as="geometry">
            <mxPoint x="1293" y="1238" as="sourcePoint" />
            <mxPoint x="1181" y="1362" as="targetPoint" />
            <mxPoint as="offset" />
          </mxGeometry>
        </mxCell>
        <mxCell id="mtToMyqUitV6mDAlZwtL-117" value="&amp;lt;&amp;lt;extend&amp;gt;&amp;gt;" style="html=1;verticalAlign=bottom;labelBackgroundColor=none;endArrow=open;endFill=0;dashed=1;rounded=0;exitX=0;exitY=0.4;exitDx=0;exitDy=0;entryX=0.97;entryY=0.745;entryDx=0;entryDy=0;entryPerimeter=0;exitPerimeter=0;" edge="1" source="mtToMyqUitV6mDAlZwtL-113" target="mtToMyqUitV6mDAlZwtL-110" parent="1">
          <mxGeometry x="-0.0075" width="160" relative="1" as="geometry">
            <mxPoint x="1288" y="1335" as="sourcePoint" />
            <mxPoint x="1205" y="1376" as="targetPoint" />
            <mxPoint as="offset" />
          </mxGeometry>
        </mxCell>
        <mxCell id="mtToMyqUitV6mDAlZwtL-118" value="&amp;lt;&amp;lt;extend&amp;gt;&amp;gt;" style="html=1;verticalAlign=bottom;labelBackgroundColor=none;endArrow=open;endFill=0;dashed=1;rounded=0;exitX=0;exitY=0;exitDx=0;exitDy=0;entryX=0.786;entryY=0.936;entryDx=0;entryDy=0;entryPerimeter=0;" edge="1" source="mtToMyqUitV6mDAlZwtL-114" target="mtToMyqUitV6mDAlZwtL-110" parent="1">
          <mxGeometry x="-0.0075" width="160" relative="1" as="geometry">
            <mxPoint x="1288" y="1428" as="sourcePoint" />
            <mxPoint x="1204" y="1407" as="targetPoint" />
            <mxPoint as="offset" />
          </mxGeometry>
        </mxCell>
        <mxCell id="mtToMyqUitV6mDAlZwtL-119" value="cập nhật học phí của lớp" style="ellipse;whiteSpace=wrap;html=1;fillColor=#FFDD00;" vertex="1" parent="1">
          <mxGeometry x="1513" y="1220" width="140" height="70" as="geometry" />
        </mxCell>
        <mxCell id="mtToMyqUitV6mDAlZwtL-120" value="cập nhật danh sách &lt;br&gt;sinh viên" style="ellipse;whiteSpace=wrap;html=1;fillColor=#FFDD00;" vertex="1" parent="1">
          <mxGeometry x="1518" y="1320" width="140" height="70" as="geometry" />
        </mxCell>
        <mxCell id="mtToMyqUitV6mDAlZwtL-121" value="cập nhật giáo viên" style="ellipse;whiteSpace=wrap;html=1;fillColor=#FFDD00;" vertex="1" parent="1">
          <mxGeometry x="1513" y="1410" width="140" height="70" as="geometry" />
        </mxCell>
        <mxCell id="mtToMyqUitV6mDAlZwtL-122" value="cập nhật thông tin chung" style="ellipse;whiteSpace=wrap;html=1;fillColor=#FFDD00;" vertex="1" parent="1">
          <mxGeometry x="1505" y="1500" width="140" height="70" as="geometry" />
        </mxCell>
        <mxCell id="mtToMyqUitV6mDAlZwtL-123" value="&amp;lt;&amp;lt;extend&amp;gt;&amp;gt;" style="html=1;verticalAlign=bottom;labelBackgroundColor=none;endArrow=open;endFill=0;dashed=1;rounded=0;exitX=0.044;exitY=0.71;exitDx=0;exitDy=0;entryX=1;entryY=0;entryDx=0;entryDy=0;exitPerimeter=0;" edge="1" parent="1" source="mtToMyqUitV6mDAlZwtL-119" target="mtToMyqUitV6mDAlZwtL-113">
          <mxGeometry x="-0.0075" width="160" relative="1" as="geometry">
            <mxPoint x="1293" y="1238" as="sourcePoint" />
            <mxPoint x="1181" y="1362" as="targetPoint" />
            <mxPoint as="offset" />
          </mxGeometry>
        </mxCell>
        <mxCell id="mtToMyqUitV6mDAlZwtL-124" value="&amp;lt;&amp;lt;extend&amp;gt;&amp;gt;" style="html=1;verticalAlign=bottom;labelBackgroundColor=none;endArrow=open;endFill=0;dashed=1;rounded=0;exitX=0;exitY=0.5;exitDx=0;exitDy=0;entryX=0.949;entryY=0.364;entryDx=0;entryDy=0;entryPerimeter=0;" edge="1" parent="1" source="mtToMyqUitV6mDAlZwtL-120" target="mtToMyqUitV6mDAlZwtL-113">
          <mxGeometry x="-0.0075" width="160" relative="1" as="geometry">
            <mxPoint x="1529" y="1280" as="sourcePoint" />
            <mxPoint x="1407" y="1410" as="targetPoint" />
            <mxPoint as="offset" />
          </mxGeometry>
        </mxCell>
        <mxCell id="mtToMyqUitV6mDAlZwtL-125" value="&amp;lt;&amp;lt;extend&amp;gt;&amp;gt;" style="html=1;verticalAlign=bottom;labelBackgroundColor=none;endArrow=open;endFill=0;dashed=1;rounded=0;exitX=0.002;exitY=0.412;exitDx=0;exitDy=0;exitPerimeter=0;" edge="1" parent="1" source="mtToMyqUitV6mDAlZwtL-121" target="mtToMyqUitV6mDAlZwtL-113">
          <mxGeometry x="-0.0075" width="160" relative="1" as="geometry">
            <mxPoint x="1528" y="1365" as="sourcePoint" />
            <mxPoint x="1417" y="1420" as="targetPoint" />
            <mxPoint as="offset" />
          </mxGeometry>
        </mxCell>
        <mxCell id="mtToMyqUitV6mDAlZwtL-126" value="&amp;lt;&amp;lt;extend&amp;gt;&amp;gt;" style="html=1;verticalAlign=bottom;labelBackgroundColor=none;endArrow=open;endFill=0;dashed=1;rounded=0;exitX=0;exitY=0;exitDx=0;exitDy=0;" edge="1" parent="1" source="mtToMyqUitV6mDAlZwtL-122" target="mtToMyqUitV6mDAlZwtL-113">
          <mxGeometry x="-0.0075" width="160" relative="1" as="geometry">
            <mxPoint x="1523" y="1449" as="sourcePoint" />
            <mxPoint x="1427" y="1441" as="targetPoint" />
            <mxPoint as="offset" />
          </mxGeometry>
        </mxCell>
        <mxCell id="mtToMyqUitV6mDAlZwtL-127" value="uc quản lý thông tin lớp quản lý" style="shape=umlFrame;whiteSpace=wrap;html=1;pointerEvents=0;fillColor=#FFFFFF;width=115;height=40;strokeColor=#000000;" vertex="1" parent="1">
          <mxGeometry x="888" y="1670" width="775" height="500" as="geometry" />
        </mxCell>
        <mxCell id="mtToMyqUitV6mDAlZwtL-128" style="edgeStyle=none;rounded=0;orthogonalLoop=1;jettySize=auto;html=1;entryX=0;entryY=0.5;entryDx=0;entryDy=0;" edge="1" source="mtToMyqUitV6mDAlZwtL-129" target="mtToMyqUitV6mDAlZwtL-130" parent="1">
          <mxGeometry relative="1" as="geometry" />
        </mxCell>
        <mxCell id="mtToMyqUitV6mDAlZwtL-129" value="admin" style="shape=umlActor;verticalLabelPosition=bottom;verticalAlign=top;html=1;outlineConnect=0;" vertex="1" parent="1">
          <mxGeometry x="938" y="1890" width="30" height="60" as="geometry" />
        </mxCell>
        <mxCell id="mtToMyqUitV6mDAlZwtL-130" value="quản lý thông tin lớp quản lý" style="ellipse;whiteSpace=wrap;html=1;fillColor=#FFDD00;" vertex="1" parent="1">
          <mxGeometry x="1058" y="1885" width="140" height="70" as="geometry" />
        </mxCell>
        <mxCell id="mtToMyqUitV6mDAlZwtL-131" value="thêm mới lớp quản lý" style="ellipse;whiteSpace=wrap;html=1;fillColor=#FFDD00;" vertex="1" parent="1">
          <mxGeometry x="1278" y="1720" width="140" height="70" as="geometry" />
        </mxCell>
        <mxCell id="mtToMyqUitV6mDAlZwtL-132" value="xem chi tiết thông tin &lt;br&gt;lớp quản lý" style="ellipse;whiteSpace=wrap;html=1;fillColor=#FFDD00;" vertex="1" parent="1">
          <mxGeometry x="1278" y="1830" width="140" height="70" as="geometry" />
        </mxCell>
        <mxCell id="mtToMyqUitV6mDAlZwtL-133" value="sửa thông tin lớp quản lý" style="ellipse;whiteSpace=wrap;html=1;fillColor=#FFDD00;" vertex="1" parent="1">
          <mxGeometry x="1278" y="1930" width="140" height="70" as="geometry" />
        </mxCell>
        <mxCell id="mtToMyqUitV6mDAlZwtL-134" value="xóa lớp" style="ellipse;whiteSpace=wrap;html=1;fillColor=#FFDD00;" vertex="1" parent="1">
          <mxGeometry x="1278" y="2030" width="140" height="70" as="geometry" />
        </mxCell>
        <mxCell id="mtToMyqUitV6mDAlZwtL-135" value="&amp;lt;&amp;lt;extend&amp;gt;&amp;gt;" style="html=1;verticalAlign=bottom;labelBackgroundColor=none;endArrow=open;endFill=0;dashed=1;rounded=0;exitX=0.036;exitY=0.686;exitDx=0;exitDy=0;entryX=0.81;entryY=0.102;entryDx=0;entryDy=0;exitPerimeter=0;entryPerimeter=0;" edge="1" source="mtToMyqUitV6mDAlZwtL-131" target="mtToMyqUitV6mDAlZwtL-130" parent="1">
          <mxGeometry x="-0.0075" width="160" relative="1" as="geometry">
            <mxPoint x="1258" y="1795" as="sourcePoint" />
            <mxPoint x="1178" y="1830" as="targetPoint" />
            <mxPoint as="offset" />
          </mxGeometry>
        </mxCell>
        <mxCell id="mtToMyqUitV6mDAlZwtL-136" value="&amp;lt;&amp;lt;extend&amp;gt;&amp;gt;" style="html=1;verticalAlign=bottom;labelBackgroundColor=none;endArrow=open;endFill=0;dashed=1;rounded=0;exitX=0;exitY=0.5;exitDx=0;exitDy=0;entryX=0.97;entryY=0.293;entryDx=0;entryDy=0;entryPerimeter=0;" edge="1" source="mtToMyqUitV6mDAlZwtL-132" target="mtToMyqUitV6mDAlZwtL-130" parent="1">
          <mxGeometry x="-0.0075" width="160" relative="1" as="geometry">
            <mxPoint x="1293" y="1778" as="sourcePoint" />
            <mxPoint x="1181" y="1902" as="targetPoint" />
            <mxPoint as="offset" />
          </mxGeometry>
        </mxCell>
        <mxCell id="mtToMyqUitV6mDAlZwtL-137" value="&amp;lt;&amp;lt;extend&amp;gt;&amp;gt;" style="html=1;verticalAlign=bottom;labelBackgroundColor=none;endArrow=open;endFill=0;dashed=1;rounded=0;exitX=0;exitY=0.4;exitDx=0;exitDy=0;entryX=0.97;entryY=0.745;entryDx=0;entryDy=0;entryPerimeter=0;exitPerimeter=0;" edge="1" source="mtToMyqUitV6mDAlZwtL-133" target="mtToMyqUitV6mDAlZwtL-130" parent="1">
          <mxGeometry x="-0.0075" width="160" relative="1" as="geometry">
            <mxPoint x="1288" y="1875" as="sourcePoint" />
            <mxPoint x="1205" y="1916" as="targetPoint" />
            <mxPoint as="offset" />
          </mxGeometry>
        </mxCell>
        <mxCell id="mtToMyqUitV6mDAlZwtL-138" value="&amp;lt;&amp;lt;extend&amp;gt;&amp;gt;" style="html=1;verticalAlign=bottom;labelBackgroundColor=none;endArrow=open;endFill=0;dashed=1;rounded=0;exitX=0;exitY=0;exitDx=0;exitDy=0;entryX=0.786;entryY=0.936;entryDx=0;entryDy=0;entryPerimeter=0;" edge="1" source="mtToMyqUitV6mDAlZwtL-134" target="mtToMyqUitV6mDAlZwtL-130" parent="1">
          <mxGeometry x="-0.0075" width="160" relative="1" as="geometry">
            <mxPoint x="1288" y="1968" as="sourcePoint" />
            <mxPoint x="1204" y="1947" as="targetPoint" />
            <mxPoint as="offset" />
          </mxGeometry>
        </mxCell>
        <mxCell id="mtToMyqUitV6mDAlZwtL-140" value="cập nhật danh sách &lt;br&gt;sinh viên" style="ellipse;whiteSpace=wrap;html=1;fillColor=#FFDD00;" vertex="1" parent="1">
          <mxGeometry x="1513" y="1820" width="140" height="70" as="geometry" />
        </mxCell>
        <mxCell id="mtToMyqUitV6mDAlZwtL-141" value="cập nhật giáo viên &lt;br&gt;chủ nhiệm" style="ellipse;whiteSpace=wrap;html=1;fillColor=#FFDD00;" vertex="1" parent="1">
          <mxGeometry x="1505" y="1920" width="140" height="70" as="geometry" />
        </mxCell>
        <mxCell id="mtToMyqUitV6mDAlZwtL-142" value="cập nhật trạng thái sinh viên trong lớp" style="ellipse;whiteSpace=wrap;html=1;fillColor=#FFDD00;" vertex="1" parent="1">
          <mxGeometry x="1503" y="2020" width="140" height="70" as="geometry" />
        </mxCell>
        <mxCell id="mtToMyqUitV6mDAlZwtL-144" value="&amp;lt;&amp;lt;extend&amp;gt;&amp;gt;" style="html=1;verticalAlign=bottom;labelBackgroundColor=none;endArrow=open;endFill=0;dashed=1;rounded=0;exitX=0;exitY=0.5;exitDx=0;exitDy=0;entryX=0.829;entryY=0.147;entryDx=0;entryDy=0;entryPerimeter=0;" edge="1" source="mtToMyqUitV6mDAlZwtL-140" target="mtToMyqUitV6mDAlZwtL-133" parent="1">
          <mxGeometry x="-0.0075" width="160" relative="1" as="geometry">
            <mxPoint x="1529" y="1820" as="sourcePoint" />
            <mxPoint x="1407" y="1950" as="targetPoint" />
            <mxPoint as="offset" />
          </mxGeometry>
        </mxCell>
        <mxCell id="mtToMyqUitV6mDAlZwtL-145" value="&amp;lt;&amp;lt;extend&amp;gt;&amp;gt;" style="html=1;verticalAlign=bottom;labelBackgroundColor=none;endArrow=open;endFill=0;dashed=1;rounded=0;exitX=0.012;exitY=0.579;exitDx=0;exitDy=0;exitPerimeter=0;" edge="1" source="mtToMyqUitV6mDAlZwtL-141" target="mtToMyqUitV6mDAlZwtL-133" parent="1">
          <mxGeometry x="-0.0075" width="160" relative="1" as="geometry">
            <mxPoint x="1528" y="1905" as="sourcePoint" />
            <mxPoint x="1417" y="1960" as="targetPoint" />
            <mxPoint as="offset" />
          </mxGeometry>
        </mxCell>
        <mxCell id="mtToMyqUitV6mDAlZwtL-146" value="&amp;lt;&amp;lt;extend&amp;gt;&amp;gt;" style="html=1;verticalAlign=bottom;labelBackgroundColor=none;endArrow=open;endFill=0;dashed=1;rounded=0;exitX=0;exitY=0.5;exitDx=0;exitDy=0;" edge="1" source="mtToMyqUitV6mDAlZwtL-142" target="mtToMyqUitV6mDAlZwtL-133" parent="1">
          <mxGeometry x="-0.0075" width="160" relative="1" as="geometry">
            <mxPoint x="1523" y="1989" as="sourcePoint" />
            <mxPoint x="1427" y="1981" as="targetPoint" />
            <mxPoint as="offset" />
          </mxGeometry>
        </mxCell>
        <mxCell id="mtToMyqUitV6mDAlZwtL-147" value="uc quản lý thông báo" style="shape=umlFrame;whiteSpace=wrap;html=1;pointerEvents=0;fillColor=#FFFFFF;width=132;height=20;strokeColor=#000000;" vertex="1" parent="1">
          <mxGeometry x="888" y="2230" width="775" height="500" as="geometry" />
        </mxCell>
        <mxCell id="mtToMyqUitV6mDAlZwtL-148" style="edgeStyle=none;rounded=0;orthogonalLoop=1;jettySize=auto;html=1;entryX=0;entryY=0.5;entryDx=0;entryDy=0;" edge="1" source="mtToMyqUitV6mDAlZwtL-149" target="mtToMyqUitV6mDAlZwtL-150" parent="1">
          <mxGeometry relative="1" as="geometry" />
        </mxCell>
        <mxCell id="mtToMyqUitV6mDAlZwtL-149" value="admin" style="shape=umlActor;verticalLabelPosition=bottom;verticalAlign=top;html=1;outlineConnect=0;" vertex="1" parent="1">
          <mxGeometry x="938" y="2450" width="30" height="60" as="geometry" />
        </mxCell>
        <mxCell id="mtToMyqUitV6mDAlZwtL-150" value="quản lý thông báo" style="ellipse;whiteSpace=wrap;html=1;fillColor=#FFDD00;" vertex="1" parent="1">
          <mxGeometry x="1058" y="2445" width="140" height="70" as="geometry" />
        </mxCell>
        <mxCell id="mtToMyqUitV6mDAlZwtL-151" value="tạo mới thông báo" style="ellipse;whiteSpace=wrap;html=1;fillColor=#FFDD00;" vertex="1" parent="1">
          <mxGeometry x="1278" y="2280" width="140" height="70" as="geometry" />
        </mxCell>
        <mxCell id="mtToMyqUitV6mDAlZwtL-152" value="xem danh sách các thông báo" style="ellipse;whiteSpace=wrap;html=1;fillColor=#FFDD00;" vertex="1" parent="1">
          <mxGeometry x="1278" y="2390" width="140" height="70" as="geometry" />
        </mxCell>
        <mxCell id="mtToMyqUitV6mDAlZwtL-153" value="sửa nội dung thông báo" style="ellipse;whiteSpace=wrap;html=1;fillColor=#FFDD00;" vertex="1" parent="1">
          <mxGeometry x="1278" y="2490" width="140" height="70" as="geometry" />
        </mxCell>
        <mxCell id="mtToMyqUitV6mDAlZwtL-154" value="xóa thông báo" style="ellipse;whiteSpace=wrap;html=1;fillColor=#FFDD00;" vertex="1" parent="1">
          <mxGeometry x="1278" y="2590" width="140" height="70" as="geometry" />
        </mxCell>
        <mxCell id="mtToMyqUitV6mDAlZwtL-155" value="&amp;lt;&amp;lt;extend&amp;gt;&amp;gt;" style="html=1;verticalAlign=bottom;labelBackgroundColor=none;endArrow=open;endFill=0;dashed=1;rounded=0;exitX=0.036;exitY=0.686;exitDx=0;exitDy=0;entryX=0.81;entryY=0.102;entryDx=0;entryDy=0;exitPerimeter=0;entryPerimeter=0;" edge="1" source="mtToMyqUitV6mDAlZwtL-151" target="mtToMyqUitV6mDAlZwtL-150" parent="1">
          <mxGeometry x="-0.0075" width="160" relative="1" as="geometry">
            <mxPoint x="1258" y="2355" as="sourcePoint" />
            <mxPoint x="1178" y="2390" as="targetPoint" />
            <mxPoint as="offset" />
          </mxGeometry>
        </mxCell>
        <mxCell id="mtToMyqUitV6mDAlZwtL-156" value="&amp;lt;&amp;lt;extend&amp;gt;&amp;gt;" style="html=1;verticalAlign=bottom;labelBackgroundColor=none;endArrow=open;endFill=0;dashed=1;rounded=0;exitX=0;exitY=0.5;exitDx=0;exitDy=0;entryX=0.97;entryY=0.293;entryDx=0;entryDy=0;entryPerimeter=0;" edge="1" source="mtToMyqUitV6mDAlZwtL-152" target="mtToMyqUitV6mDAlZwtL-150" parent="1">
          <mxGeometry x="-0.0075" width="160" relative="1" as="geometry">
            <mxPoint x="1293" y="2338" as="sourcePoint" />
            <mxPoint x="1181" y="2462" as="targetPoint" />
            <mxPoint as="offset" />
          </mxGeometry>
        </mxCell>
        <mxCell id="mtToMyqUitV6mDAlZwtL-157" value="&amp;lt;&amp;lt;extend&amp;gt;&amp;gt;" style="html=1;verticalAlign=bottom;labelBackgroundColor=none;endArrow=open;endFill=0;dashed=1;rounded=0;exitX=0;exitY=0.4;exitDx=0;exitDy=0;entryX=0.97;entryY=0.745;entryDx=0;entryDy=0;entryPerimeter=0;exitPerimeter=0;" edge="1" source="mtToMyqUitV6mDAlZwtL-153" target="mtToMyqUitV6mDAlZwtL-150" parent="1">
          <mxGeometry x="-0.0075" width="160" relative="1" as="geometry">
            <mxPoint x="1288" y="2435" as="sourcePoint" />
            <mxPoint x="1205" y="2476" as="targetPoint" />
            <mxPoint as="offset" />
          </mxGeometry>
        </mxCell>
        <mxCell id="mtToMyqUitV6mDAlZwtL-158" value="&amp;lt;&amp;lt;extend&amp;gt;&amp;gt;" style="html=1;verticalAlign=bottom;labelBackgroundColor=none;endArrow=open;endFill=0;dashed=1;rounded=0;exitX=0;exitY=0;exitDx=0;exitDy=0;entryX=0.786;entryY=0.936;entryDx=0;entryDy=0;entryPerimeter=0;" edge="1" source="mtToMyqUitV6mDAlZwtL-154" target="mtToMyqUitV6mDAlZwtL-150" parent="1">
          <mxGeometry x="-0.0075" width="160" relative="1" as="geometry">
            <mxPoint x="1288" y="2528" as="sourcePoint" />
            <mxPoint x="1204" y="2507" as="targetPoint" />
            <mxPoint as="offset" />
          </mxGeometry>
        </mxCell>
        <mxCell id="mtToMyqUitV6mDAlZwtL-159" value="cập nhật đối tượng nhận thông báo" style="ellipse;whiteSpace=wrap;html=1;fillColor=#FFDD00;" vertex="1" parent="1">
          <mxGeometry x="1503" y="2445" width="140" height="70" as="geometry" />
        </mxCell>
        <mxCell id="mtToMyqUitV6mDAlZwtL-160" value="cập nhật nội dung thông báo" style="ellipse;whiteSpace=wrap;html=1;fillColor=#FFDD00;" vertex="1" parent="1">
          <mxGeometry x="1503" y="2560" width="140" height="70" as="geometry" />
        </mxCell>
        <mxCell id="mtToMyqUitV6mDAlZwtL-162" value="&amp;lt;&amp;lt;extend&amp;gt;&amp;gt;" style="html=1;verticalAlign=bottom;labelBackgroundColor=none;endArrow=open;endFill=0;dashed=1;rounded=0;exitX=0;exitY=0.5;exitDx=0;exitDy=0;entryX=0.829;entryY=0.147;entryDx=0;entryDy=0;entryPerimeter=0;" edge="1" source="mtToMyqUitV6mDAlZwtL-159" target="mtToMyqUitV6mDAlZwtL-153" parent="1">
          <mxGeometry x="-0.0075" width="160" relative="1" as="geometry">
            <mxPoint x="1529" y="2380" as="sourcePoint" />
            <mxPoint x="1407" y="2510" as="targetPoint" />
            <mxPoint as="offset" />
          </mxGeometry>
        </mxCell>
        <mxCell id="mtToMyqUitV6mDAlZwtL-163" value="&amp;lt;&amp;lt;extend&amp;gt;&amp;gt;" style="html=1;verticalAlign=bottom;labelBackgroundColor=none;endArrow=open;endFill=0;dashed=1;rounded=0;exitX=0.038;exitY=0.352;exitDx=0;exitDy=0;exitPerimeter=0;" edge="1" source="mtToMyqUitV6mDAlZwtL-160" target="mtToMyqUitV6mDAlZwtL-153" parent="1">
          <mxGeometry x="-0.0075" width="160" relative="1" as="geometry">
            <mxPoint x="1528" y="2465" as="sourcePoint" />
            <mxPoint x="1417" y="2520" as="targetPoint" />
            <mxPoint as="offset" />
          </mxGeometry>
        </mxCell>
        <mxCell id="mtToMyqUitV6mDAlZwtL-165" value="uc quản lý thi cử" style="shape=umlFrame;whiteSpace=wrap;html=1;pointerEvents=0;fillColor=#FFFFFF;width=132;height=20;strokeColor=#000000;" vertex="1" parent="1">
          <mxGeometry x="888" y="2780" width="775" height="500" as="geometry" />
        </mxCell>
        <mxCell id="mtToMyqUitV6mDAlZwtL-166" style="edgeStyle=none;rounded=0;orthogonalLoop=1;jettySize=auto;html=1;entryX=0;entryY=0.5;entryDx=0;entryDy=0;" edge="1" source="mtToMyqUitV6mDAlZwtL-167" target="mtToMyqUitV6mDAlZwtL-168" parent="1">
          <mxGeometry relative="1" as="geometry" />
        </mxCell>
        <mxCell id="mtToMyqUitV6mDAlZwtL-167" value="admin" style="shape=umlActor;verticalLabelPosition=bottom;verticalAlign=top;html=1;outlineConnect=0;" vertex="1" parent="1">
          <mxGeometry x="938" y="3000" width="30" height="60" as="geometry" />
        </mxCell>
        <mxCell id="mtToMyqUitV6mDAlZwtL-168" value="quản lý thi cử" style="ellipse;whiteSpace=wrap;html=1;fillColor=#FFDD00;" vertex="1" parent="1">
          <mxGeometry x="1058" y="2995" width="140" height="70" as="geometry" />
        </mxCell>
        <mxCell id="mtToMyqUitV6mDAlZwtL-169" value="tạo mới bài kiểm tra" style="ellipse;whiteSpace=wrap;html=1;fillColor=#FFDD00;" vertex="1" parent="1">
          <mxGeometry x="1278" y="2870" width="140" height="70" as="geometry" />
        </mxCell>
        <mxCell id="mtToMyqUitV6mDAlZwtL-170" value="xem danh sách các bài kiểm tra" style="ellipse;whiteSpace=wrap;html=1;fillColor=#FFDD00;" vertex="1" parent="1">
          <mxGeometry x="1278" y="2990" width="140" height="70" as="geometry" />
        </mxCell>
        <mxCell id="mtToMyqUitV6mDAlZwtL-171" value="sửa thông tin các bài kiểm tra" style="ellipse;whiteSpace=wrap;html=1;fillColor=#FFDD00;" vertex="1" parent="1">
          <mxGeometry x="1278" y="3100" width="140" height="70" as="geometry" />
        </mxCell>
        <mxCell id="mtToMyqUitV6mDAlZwtL-173" value="&amp;lt;&amp;lt;extend&amp;gt;&amp;gt;" style="html=1;verticalAlign=bottom;labelBackgroundColor=none;endArrow=open;endFill=0;dashed=1;rounded=0;exitX=0.036;exitY=0.686;exitDx=0;exitDy=0;entryX=0.81;entryY=0.102;entryDx=0;entryDy=0;exitPerimeter=0;entryPerimeter=0;" edge="1" source="mtToMyqUitV6mDAlZwtL-169" target="mtToMyqUitV6mDAlZwtL-168" parent="1">
          <mxGeometry x="-0.0075" width="160" relative="1" as="geometry">
            <mxPoint x="1258" y="2905" as="sourcePoint" />
            <mxPoint x="1178" y="2940" as="targetPoint" />
            <mxPoint as="offset" />
          </mxGeometry>
        </mxCell>
        <mxCell id="mtToMyqUitV6mDAlZwtL-174" value="&amp;lt;&amp;lt;extend&amp;gt;&amp;gt;" style="html=1;verticalAlign=bottom;labelBackgroundColor=none;endArrow=open;endFill=0;dashed=1;rounded=0;exitX=0;exitY=0.5;exitDx=0;exitDy=0;entryX=0.996;entryY=0.424;entryDx=0;entryDy=0;entryPerimeter=0;" edge="1" source="mtToMyqUitV6mDAlZwtL-170" target="mtToMyqUitV6mDAlZwtL-168" parent="1">
          <mxGeometry x="-0.0075" width="160" relative="1" as="geometry">
            <mxPoint x="1293" y="2888" as="sourcePoint" />
            <mxPoint x="1181" y="3012" as="targetPoint" />
            <mxPoint as="offset" />
          </mxGeometry>
        </mxCell>
        <mxCell id="mtToMyqUitV6mDAlZwtL-175" value="&amp;lt;&amp;lt;extend&amp;gt;&amp;gt;" style="html=1;verticalAlign=bottom;labelBackgroundColor=none;endArrow=open;endFill=0;dashed=1;rounded=0;exitX=0;exitY=0.4;exitDx=0;exitDy=0;entryX=1;entryY=1;entryDx=0;entryDy=0;exitPerimeter=0;" edge="1" source="mtToMyqUitV6mDAlZwtL-171" target="mtToMyqUitV6mDAlZwtL-168" parent="1">
          <mxGeometry x="-0.0075" width="160" relative="1" as="geometry">
            <mxPoint x="1288" y="2985" as="sourcePoint" />
            <mxPoint x="1205" y="3026" as="targetPoint" />
            <mxPoint as="offset" />
          </mxGeometry>
        </mxCell>
        <mxCell id="mtToMyqUitV6mDAlZwtL-177" value="cập nhật trạng thái&lt;br&gt;bài kiểm tra" style="ellipse;whiteSpace=wrap;html=1;fillColor=#FFDD00;" vertex="1" parent="1">
          <mxGeometry x="1505" y="3050" width="140" height="70" as="geometry" />
        </mxCell>
        <mxCell id="mtToMyqUitV6mDAlZwtL-178" value="cập nhật điểm của&amp;nbsp;&lt;div&gt;sinh viên&lt;/div&gt;" style="ellipse;whiteSpace=wrap;html=1;fillColor=#FFDD00;" vertex="1" parent="1">
          <mxGeometry x="1505" y="3165" width="140" height="70" as="geometry" />
        </mxCell>
        <mxCell id="mtToMyqUitV6mDAlZwtL-179" value="&amp;lt;&amp;lt;extend&amp;gt;&amp;gt;" style="html=1;verticalAlign=bottom;labelBackgroundColor=none;endArrow=open;endFill=0;dashed=1;rounded=0;exitX=0;exitY=0.5;exitDx=0;exitDy=0;entryX=0.913;entryY=0.221;entryDx=0;entryDy=0;entryPerimeter=0;" edge="1" source="mtToMyqUitV6mDAlZwtL-177" target="mtToMyqUitV6mDAlZwtL-171" parent="1">
          <mxGeometry x="-0.0075" width="160" relative="1" as="geometry">
            <mxPoint x="1529" y="2930" as="sourcePoint" />
            <mxPoint x="1407" y="3060" as="targetPoint" />
            <mxPoint as="offset" />
          </mxGeometry>
        </mxCell>
        <mxCell id="mtToMyqUitV6mDAlZwtL-180" value="&amp;lt;&amp;lt;extend&amp;gt;&amp;gt;" style="html=1;verticalAlign=bottom;labelBackgroundColor=none;endArrow=open;endFill=0;dashed=1;rounded=0;exitX=0.038;exitY=0.352;exitDx=0;exitDy=0;exitPerimeter=0;" edge="1" source="mtToMyqUitV6mDAlZwtL-178" target="mtToMyqUitV6mDAlZwtL-171" parent="1">
          <mxGeometry x="-0.0075" width="160" relative="1" as="geometry">
            <mxPoint x="1528" y="3015" as="sourcePoint" />
            <mxPoint x="1417" y="3070" as="targetPoint" />
            <mxPoint as="offset" />
          </mxGeometry>
        </mxCell>
        <mxCell id="mtToMyqUitV6mDAlZwtL-182" value="uc điểm danh" style="shape=umlFrame;whiteSpace=wrap;html=1;pointerEvents=0;fillColor=#FFFFFF;width=132;height=20;strokeColor=#000000;" vertex="1" parent="1">
          <mxGeometry x="888" y="3320" width="775" height="500" as="geometry" />
        </mxCell>
        <mxCell id="mtToMyqUitV6mDAlZwtL-183" style="edgeStyle=none;rounded=0;orthogonalLoop=1;jettySize=auto;html=1;entryX=0;entryY=0.5;entryDx=0;entryDy=0;" edge="1" source="mtToMyqUitV6mDAlZwtL-184" target="mtToMyqUitV6mDAlZwtL-185" parent="1">
          <mxGeometry relative="1" as="geometry" />
        </mxCell>
        <mxCell id="mtToMyqUitV6mDAlZwtL-184" value="teacher" style="shape=umlActor;verticalLabelPosition=bottom;verticalAlign=top;html=1;outlineConnect=0;" vertex="1" parent="1">
          <mxGeometry x="938" y="3540" width="30" height="60" as="geometry" />
        </mxCell>
        <mxCell id="mtToMyqUitV6mDAlZwtL-185" value="quản lý điểm danh" style="ellipse;whiteSpace=wrap;html=1;fillColor=#FFDD00;" vertex="1" parent="1">
          <mxGeometry x="1058" y="3535" width="140" height="70" as="geometry" />
        </mxCell>
        <mxCell id="mtToMyqUitV6mDAlZwtL-186" value="tạo mới đợt điểm danh" style="ellipse;whiteSpace=wrap;html=1;fillColor=#FFDD00;" vertex="1" parent="1">
          <mxGeometry x="1278" y="3410" width="140" height="70" as="geometry" />
        </mxCell>
        <mxCell id="mtToMyqUitV6mDAlZwtL-187" value="xem lịch sử điểm danh" style="ellipse;whiteSpace=wrap;html=1;fillColor=#FFDD00;" vertex="1" parent="1">
          <mxGeometry x="1278" y="3530" width="140" height="70" as="geometry" />
        </mxCell>
        <mxCell id="mtToMyqUitV6mDAlZwtL-188" value="điểm danh" style="ellipse;whiteSpace=wrap;html=1;fillColor=#FFDD00;" vertex="1" parent="1">
          <mxGeometry x="1278" y="3640" width="140" height="70" as="geometry" />
        </mxCell>
        <mxCell id="mtToMyqUitV6mDAlZwtL-189" value="&amp;lt;&amp;lt;extend&amp;gt;&amp;gt;" style="html=1;verticalAlign=bottom;labelBackgroundColor=none;endArrow=open;endFill=0;dashed=1;rounded=0;exitX=0.036;exitY=0.686;exitDx=0;exitDy=0;entryX=0.81;entryY=0.102;entryDx=0;entryDy=0;exitPerimeter=0;entryPerimeter=0;" edge="1" source="mtToMyqUitV6mDAlZwtL-186" target="mtToMyqUitV6mDAlZwtL-185" parent="1">
          <mxGeometry x="-0.0075" width="160" relative="1" as="geometry">
            <mxPoint x="1258" y="3445" as="sourcePoint" />
            <mxPoint x="1178" y="3480" as="targetPoint" />
            <mxPoint as="offset" />
          </mxGeometry>
        </mxCell>
        <mxCell id="mtToMyqUitV6mDAlZwtL-190" value="&amp;lt;&amp;lt;extend&amp;gt;&amp;gt;" style="html=1;verticalAlign=bottom;labelBackgroundColor=none;endArrow=open;endFill=0;dashed=1;rounded=0;exitX=0;exitY=0.5;exitDx=0;exitDy=0;entryX=0.996;entryY=0.424;entryDx=0;entryDy=0;entryPerimeter=0;" edge="1" source="mtToMyqUitV6mDAlZwtL-187" target="mtToMyqUitV6mDAlZwtL-185" parent="1">
          <mxGeometry x="-0.0075" width="160" relative="1" as="geometry">
            <mxPoint x="1293" y="3428" as="sourcePoint" />
            <mxPoint x="1181" y="3552" as="targetPoint" />
            <mxPoint as="offset" />
          </mxGeometry>
        </mxCell>
        <mxCell id="mtToMyqUitV6mDAlZwtL-191" value="&amp;lt;&amp;lt;extend&amp;gt;&amp;gt;" style="html=1;verticalAlign=bottom;labelBackgroundColor=none;endArrow=open;endFill=0;dashed=1;rounded=0;exitX=0;exitY=0.4;exitDx=0;exitDy=0;entryX=1;entryY=1;entryDx=0;entryDy=0;exitPerimeter=0;" edge="1" source="mtToMyqUitV6mDAlZwtL-188" target="mtToMyqUitV6mDAlZwtL-185" parent="1">
          <mxGeometry x="-0.0075" width="160" relative="1" as="geometry">
            <mxPoint x="1288" y="3525" as="sourcePoint" />
            <mxPoint x="1205" y="3566" as="targetPoint" />
            <mxPoint as="offset" />
          </mxGeometry>
        </mxCell>
        <mxCell id="mtToMyqUitV6mDAlZwtL-192" value="ghi nhận điểm danh" style="ellipse;whiteSpace=wrap;html=1;fillColor=#FFDD00;" vertex="1" parent="1">
          <mxGeometry x="1505" y="3590" width="140" height="70" as="geometry" />
        </mxCell>
        <mxCell id="mtToMyqUitV6mDAlZwtL-193" value="cập nhật trạng thái điểm danh" style="ellipse;whiteSpace=wrap;html=1;fillColor=#FFDD00;" vertex="1" parent="1">
          <mxGeometry x="1505" y="3705" width="140" height="70" as="geometry" />
        </mxCell>
        <mxCell id="mtToMyqUitV6mDAlZwtL-194" value="&amp;lt;&amp;lt;extend&amp;gt;&amp;gt;" style="html=1;verticalAlign=bottom;labelBackgroundColor=none;endArrow=open;endFill=0;dashed=1;rounded=0;exitX=0;exitY=0.5;exitDx=0;exitDy=0;entryX=0.913;entryY=0.221;entryDx=0;entryDy=0;entryPerimeter=0;" edge="1" source="mtToMyqUitV6mDAlZwtL-192" target="mtToMyqUitV6mDAlZwtL-188" parent="1">
          <mxGeometry x="-0.0075" width="160" relative="1" as="geometry">
            <mxPoint x="1529" y="3470" as="sourcePoint" />
            <mxPoint x="1407" y="3600" as="targetPoint" />
            <mxPoint as="offset" />
          </mxGeometry>
        </mxCell>
        <mxCell id="mtToMyqUitV6mDAlZwtL-195" value="&amp;lt;&amp;lt;extend&amp;gt;&amp;gt;" style="html=1;verticalAlign=bottom;labelBackgroundColor=none;endArrow=open;endFill=0;dashed=1;rounded=0;exitX=0.038;exitY=0.352;exitDx=0;exitDy=0;exitPerimeter=0;" edge="1" source="mtToMyqUitV6mDAlZwtL-193" target="mtToMyqUitV6mDAlZwtL-188" parent="1">
          <mxGeometry x="-0.0075" width="160" relative="1" as="geometry">
            <mxPoint x="1528" y="3555" as="sourcePoint" />
            <mxPoint x="1417" y="3610" as="targetPoint" />
            <mxPoint as="offset" />
          </mxGeometry>
        </mxCell>
        <mxCell id="mtToMyqUitV6mDAlZwtL-196" value="" style="ellipse;html=1;shape=startState;fillColor=#000000;strokeColor=#ff0000;" vertex="1" parent="1">
          <mxGeometry x="2089" y="190" width="30" height="30" as="geometry" />
        </mxCell>
        <mxCell id="mtToMyqUitV6mDAlZwtL-197" value="" style="edgeStyle=orthogonalEdgeStyle;html=1;verticalAlign=bottom;endArrow=open;endSize=8;strokeColor=#ff0000;rounded=0;" edge="1" source="mtToMyqUitV6mDAlZwtL-196" parent="1">
          <mxGeometry relative="1" as="geometry">
            <mxPoint x="2104" y="280" as="targetPoint" />
          </mxGeometry>
        </mxCell>
        <mxCell id="mtToMyqUitV6mDAlZwtL-198" value="Admin chọn tạo mới lớp học" style="rounded=1;whiteSpace=wrap;html=1;arcSize=40;fontColor=#000000;fillColor=#ffffc0;strokeColor=#ff0000;" vertex="1" parent="1">
          <mxGeometry x="2044" y="280" width="120" height="40" as="geometry" />
        </mxCell>
        <mxCell id="mtToMyqUitV6mDAlZwtL-199" value="" style="edgeStyle=orthogonalEdgeStyle;html=1;verticalAlign=bottom;endArrow=open;endSize=8;strokeColor=#ff0000;rounded=0;entryX=0.5;entryY=0;entryDx=0;entryDy=0;" edge="1" source="mtToMyqUitV6mDAlZwtL-198" parent="1" target="mtToMyqUitV6mDAlZwtL-203">
          <mxGeometry relative="1" as="geometry">
            <mxPoint x="2104" y="380" as="targetPoint" />
            <Array as="points">
              <mxPoint x="2104" y="340" />
              <mxPoint x="2012" y="340" />
            </Array>
          </mxGeometry>
        </mxCell>
        <mxCell id="mtToMyqUitV6mDAlZwtL-203" value="Chọn môn học&lt;br&gt;Chọn lịch học&lt;br&gt;Chọn giáo viên" style="rounded=1;whiteSpace=wrap;html=1;arcSize=40;fontColor=#000000;fillColor=#ffffc0;strokeColor=#ff0000;" vertex="1" parent="1">
          <mxGeometry x="1952" y="370" width="120" height="50" as="geometry" />
        </mxCell>
        <mxCell id="mtToMyqUitV6mDAlZwtL-209" value="Nhập học phí&lt;br&gt;Nhập số buổi nghỉ tối đa" style="rounded=1;whiteSpace=wrap;html=1;arcSize=40;fontColor=#000000;fillColor=#ffffc0;strokeColor=#ff0000;" vertex="1" parent="1">
          <mxGeometry x="2134" y="365" width="135" height="40" as="geometry" />
        </mxCell>
        <mxCell id="mtToMyqUitV6mDAlZwtL-210" value="" style="edgeStyle=orthogonalEdgeStyle;html=1;verticalAlign=bottom;endArrow=open;endSize=8;strokeColor=#ff0000;rounded=0;exitX=0.555;exitY=0.998;exitDx=0;exitDy=0;entryX=0.458;entryY=0;entryDx=0;entryDy=0;entryPerimeter=0;exitPerimeter=0;" edge="1" source="mtToMyqUitV6mDAlZwtL-209" parent="1">
          <mxGeometry relative="1" as="geometry">
            <mxPoint x="2109" y="510" as="targetPoint" />
            <mxPoint x="2231.54" y="405" as="sourcePoint" />
            <Array as="points">
              <mxPoint x="2209" y="440" />
              <mxPoint x="2109" y="440" />
            </Array>
          </mxGeometry>
        </mxCell>
        <mxCell id="mtToMyqUitV6mDAlZwtL-211" value="Admin chọn lưu" style="rounded=1;whiteSpace=wrap;html=1;arcSize=40;fontColor=#000000;fillColor=#ffffc0;strokeColor=#ff0000;" vertex="1" parent="1">
          <mxGeometry x="2044" y="510" width="120" height="40" as="geometry" />
        </mxCell>
        <mxCell id="mtToMyqUitV6mDAlZwtL-236" style="edgeStyle=none;rounded=0;orthogonalLoop=1;jettySize=auto;html=1;entryX=0.5;entryY=0;entryDx=0;entryDy=0;strokeColor=#FF0000;" edge="1" parent="1" source="mtToMyqUitV6mDAlZwtL-218" target="mtToMyqUitV6mDAlZwtL-232">
          <mxGeometry relative="1" as="geometry">
            <Array as="points">
              <mxPoint x="2104" y="730" />
              <mxPoint x="2170" y="730" />
            </Array>
          </mxGeometry>
        </mxCell>
        <mxCell id="mtToMyqUitV6mDAlZwtL-218" value="Các thông tin &lt;br&gt;hợp lệ" style="rhombus;whiteSpace=wrap;html=1;fontColor=#000000;fillColor=#ffffc0;strokeColor=#ff0000;" vertex="1" parent="1">
          <mxGeometry x="2049" y="600" width="110" height="70" as="geometry" />
        </mxCell>
        <mxCell id="mtToMyqUitV6mDAlZwtL-219" value="no" style="edgeStyle=orthogonalEdgeStyle;html=1;align=left;verticalAlign=bottom;endArrow=open;endSize=8;strokeColor=#ff0000;rounded=0;" edge="1" source="mtToMyqUitV6mDAlZwtL-218" parent="1">
          <mxGeometry x="-1" relative="1" as="geometry">
            <mxPoint x="2269" y="635" as="targetPoint" />
            <Array as="points">
              <mxPoint x="2259" y="635" />
            </Array>
          </mxGeometry>
        </mxCell>
        <mxCell id="mtToMyqUitV6mDAlZwtL-220" value="yes" style="edgeStyle=orthogonalEdgeStyle;html=1;align=left;verticalAlign=top;endArrow=open;endSize=8;strokeColor=#ff0000;rounded=0;entryX=0.5;entryY=0;entryDx=0;entryDy=0;" edge="1" source="mtToMyqUitV6mDAlZwtL-218" parent="1" target="mtToMyqUitV6mDAlZwtL-230">
          <mxGeometry x="-1" relative="1" as="geometry">
            <mxPoint x="2104" y="740" as="targetPoint" />
            <Array as="points">
              <mxPoint x="2104" y="730" />
              <mxPoint x="2036" y="730" />
            </Array>
          </mxGeometry>
        </mxCell>
        <mxCell id="mtToMyqUitV6mDAlZwtL-221" value="" style="ellipse;html=1;shape=endState;fillColor=#000000;strokeColor=#ff0000;" vertex="1" parent="1">
          <mxGeometry x="2269" y="620" width="30" height="30" as="geometry" />
        </mxCell>
        <mxCell id="mtToMyqUitV6mDAlZwtL-223" value="" style="edgeStyle=orthogonalEdgeStyle;html=1;verticalAlign=bottom;endArrow=open;endSize=8;strokeColor=#ff0000;rounded=0;entryX=0.5;entryY=0;entryDx=0;entryDy=0;exitX=0.5;exitY=1;exitDx=0;exitDy=0;" edge="1" parent="1" source="mtToMyqUitV6mDAlZwtL-198" target="mtToMyqUitV6mDAlZwtL-209">
          <mxGeometry relative="1" as="geometry">
            <mxPoint x="2022" y="380" as="targetPoint" />
            <mxPoint x="2114" y="330" as="sourcePoint" />
            <Array as="points">
              <mxPoint x="2104" y="340" />
              <mxPoint x="2201" y="340" />
            </Array>
          </mxGeometry>
        </mxCell>
        <mxCell id="mtToMyqUitV6mDAlZwtL-225" value="" style="edgeStyle=orthogonalEdgeStyle;html=1;verticalAlign=bottom;endArrow=open;endSize=8;strokeColor=#ff0000;rounded=0;exitX=0.5;exitY=1;exitDx=0;exitDy=0;" edge="1" parent="1" source="mtToMyqUitV6mDAlZwtL-203" target="mtToMyqUitV6mDAlZwtL-211">
          <mxGeometry relative="1" as="geometry">
            <mxPoint x="2099" y="600" as="targetPoint" />
            <mxPoint x="2231.5" y="415" as="sourcePoint" />
            <Array as="points">
              <mxPoint x="2009" y="420" />
              <mxPoint x="2009" y="440" />
              <mxPoint x="2109" y="440" />
            </Array>
          </mxGeometry>
        </mxCell>
        <mxCell id="mtToMyqUitV6mDAlZwtL-229" value="" style="edgeStyle=orthogonalEdgeStyle;html=1;verticalAlign=bottom;endArrow=open;endSize=8;strokeColor=#ff0000;rounded=0;" edge="1" parent="1">
          <mxGeometry relative="1" as="geometry">
            <mxPoint x="2104" y="600" as="targetPoint" />
            <mxPoint x="2103.71" y="550" as="sourcePoint" />
          </mxGeometry>
        </mxCell>
        <mxCell id="mtToMyqUitV6mDAlZwtL-239" style="edgeStyle=none;rounded=0;orthogonalLoop=1;jettySize=auto;html=1;entryX=0.5;entryY=0;entryDx=0;entryDy=0;strokeColor=#FF0000;" edge="1" parent="1" source="mtToMyqUitV6mDAlZwtL-230" target="mtToMyqUitV6mDAlZwtL-238">
          <mxGeometry relative="1" as="geometry">
            <Array as="points">
              <mxPoint x="2037" y="850" />
              <mxPoint x="2104" y="850" />
            </Array>
          </mxGeometry>
        </mxCell>
        <mxCell id="mtToMyqUitV6mDAlZwtL-230" value="Thêm bản ghi lớp" style="rounded=1;whiteSpace=wrap;html=1;arcSize=40;fontColor=#000000;fillColor=#ffffc0;strokeColor=#ff0000;" vertex="1" parent="1">
          <mxGeometry x="1976.5" y="770" width="120" height="40" as="geometry" />
        </mxCell>
        <mxCell id="mtToMyqUitV6mDAlZwtL-240" style="edgeStyle=none;rounded=0;orthogonalLoop=1;jettySize=auto;html=1;entryX=0.5;entryY=0;entryDx=0;entryDy=0;strokeColor=#FF0000;" edge="1" parent="1" source="mtToMyqUitV6mDAlZwtL-232" target="mtToMyqUitV6mDAlZwtL-238">
          <mxGeometry relative="1" as="geometry">
            <Array as="points">
              <mxPoint x="2170" y="850" />
              <mxPoint x="2104" y="850" />
            </Array>
          </mxGeometry>
        </mxCell>
        <mxCell id="mtToMyqUitV6mDAlZwtL-232" value="Thêm bản ghi lịch học" style="rounded=1;whiteSpace=wrap;html=1;arcSize=40;fontColor=#000000;fillColor=#ffffc0;strokeColor=#ff0000;" vertex="1" parent="1">
          <mxGeometry x="2110" y="770" width="120" height="40" as="geometry" />
        </mxCell>
        <mxCell id="mtToMyqUitV6mDAlZwtL-238" value="" style="ellipse;html=1;shape=endState;fillColor=#000000;strokeColor=#ff0000;" vertex="1" parent="1">
          <mxGeometry x="2089" y="880" width="30" height="30" as="geometry" />
        </mxCell>
        <mxCell id="mtToMyqUitV6mDAlZwtL-241" value="Quy trình điểm danh" style="swimlane;html=1;childLayout=stackLayout;resizeParent=1;resizeParentMax=0;startSize=20;whiteSpace=wrap;" vertex="1" parent="1">
          <mxGeometry x="1950" y="1310" width="350" height="580" as="geometry" />
        </mxCell>
        <mxCell id="mtToMyqUitV6mDAlZwtL-242" value="teacher" style="swimlane;html=1;startSize=20;" vertex="1" parent="mtToMyqUitV6mDAlZwtL-241">
          <mxGeometry y="20" width="180" height="560" as="geometry" />
        </mxCell>
        <mxCell id="mtToMyqUitV6mDAlZwtL-250" style="edgeStyle=none;rounded=0;orthogonalLoop=1;jettySize=auto;html=1;entryX=0.5;entryY=0;entryDx=0;entryDy=0;strokeColor=#FF0000;" edge="1" parent="mtToMyqUitV6mDAlZwtL-242" source="mtToMyqUitV6mDAlZwtL-247" target="mtToMyqUitV6mDAlZwtL-248">
          <mxGeometry relative="1" as="geometry" />
        </mxCell>
        <mxCell id="mtToMyqUitV6mDAlZwtL-247" value="" style="ellipse;html=1;shape=endState;fillColor=#000000;strokeColor=#ff0000;" vertex="1" parent="mtToMyqUitV6mDAlZwtL-242">
          <mxGeometry x="75" y="40" width="30" height="30" as="geometry" />
        </mxCell>
        <mxCell id="mtToMyqUitV6mDAlZwtL-248" value="tạo mới đợt &lt;br&gt;điểm danh" style="rounded=1;whiteSpace=wrap;html=1;arcSize=40;fontColor=#000000;fillColor=#ffffc0;strokeColor=#ff0000;" vertex="1" parent="mtToMyqUitV6mDAlZwtL-242">
          <mxGeometry x="30" y="120" width="120" height="40" as="geometry" />
        </mxCell>
        <mxCell id="mtToMyqUitV6mDAlZwtL-249" value="" style="edgeStyle=orthogonalEdgeStyle;html=1;verticalAlign=bottom;endArrow=open;endSize=8;strokeColor=#ff0000;rounded=0;" edge="1" source="mtToMyqUitV6mDAlZwtL-248" parent="mtToMyqUitV6mDAlZwtL-242">
          <mxGeometry relative="1" as="geometry">
            <mxPoint x="90" y="220" as="targetPoint" />
          </mxGeometry>
        </mxCell>
        <mxCell id="mtToMyqUitV6mDAlZwtL-253" value="dùng QR" style="rhombus;whiteSpace=wrap;html=1;fontColor=#000000;fillColor=#ffffc0;strokeColor=#ff0000;" vertex="1" parent="mtToMyqUitV6mDAlZwtL-242">
          <mxGeometry x="50" y="220" width="80" height="40" as="geometry" />
        </mxCell>
        <mxCell id="mtToMyqUitV6mDAlZwtL-255" value="no" style="edgeStyle=orthogonalEdgeStyle;html=1;align=left;verticalAlign=top;endArrow=open;endSize=8;strokeColor=#ff0000;rounded=0;" edge="1" source="mtToMyqUitV6mDAlZwtL-253" parent="mtToMyqUitV6mDAlZwtL-242">
          <mxGeometry x="-1" relative="1" as="geometry">
            <mxPoint x="90" y="320" as="targetPoint" />
          </mxGeometry>
        </mxCell>
        <mxCell id="mtToMyqUitV6mDAlZwtL-267" value="tiến hành điểm danh&lt;br&gt;trực tiếp" style="rounded=1;whiteSpace=wrap;html=1;arcSize=40;fontColor=#000000;fillColor=#ffffc0;strokeColor=#ff0000;" vertex="1" parent="mtToMyqUitV6mDAlZwtL-242">
          <mxGeometry x="30" y="320" width="120" height="40" as="geometry" />
        </mxCell>
        <mxCell id="mtToMyqUitV6mDAlZwtL-268" value="" style="edgeStyle=orthogonalEdgeStyle;html=1;verticalAlign=bottom;endArrow=open;endSize=8;strokeColor=#ff0000;rounded=0;" edge="1" source="mtToMyqUitV6mDAlZwtL-267" parent="mtToMyqUitV6mDAlZwtL-242">
          <mxGeometry relative="1" as="geometry">
            <mxPoint x="90" y="420" as="targetPoint" />
          </mxGeometry>
        </mxCell>
        <mxCell id="mtToMyqUitV6mDAlZwtL-273" value="" style="ellipse;html=1;shape=endState;fillColor=#000000;strokeColor=#ff0000;" vertex="1" parent="mtToMyqUitV6mDAlZwtL-242">
          <mxGeometry x="75" y="420" width="30" height="30" as="geometry" />
        </mxCell>
        <mxCell id="mtToMyqUitV6mDAlZwtL-256" value="system" style="swimlane;html=1;startSize=20;" vertex="1" parent="mtToMyqUitV6mDAlZwtL-241">
          <mxGeometry x="180" y="20" width="170" height="560" as="geometry" />
        </mxCell>
        <mxCell id="mtToMyqUitV6mDAlZwtL-258" value="" style="edgeStyle=orthogonalEdgeStyle;html=1;verticalAlign=bottom;endArrow=open;endSize=8;strokeColor=#ff0000;rounded=0;" edge="1" source="mtToMyqUitV6mDAlZwtL-257" parent="mtToMyqUitV6mDAlZwtL-256">
          <mxGeometry relative="1" as="geometry">
            <mxPoint x="90" y="320" as="targetPoint" />
          </mxGeometry>
        </mxCell>
        <mxCell id="mtToMyqUitV6mDAlZwtL-257" value="sinh mã QR cùng &lt;br&gt;thời gian" style="rounded=1;whiteSpace=wrap;html=1;arcSize=40;fontColor=#000000;fillColor=#ffffc0;strokeColor=#ff0000;" vertex="1" parent="mtToMyqUitV6mDAlZwtL-256">
          <mxGeometry x="30" y="220" width="120" height="40" as="geometry" />
        </mxCell>
        <mxCell id="mtToMyqUitV6mDAlZwtL-279" value="chờ đợi sinh viên&amp;nbsp;&lt;br&gt;điểm danh trong &lt;br&gt;thời gian" style="rounded=1;whiteSpace=wrap;html=1;arcSize=40;fontColor=#000000;fillColor=#ffffc0;strokeColor=#ff0000;" vertex="1" parent="mtToMyqUitV6mDAlZwtL-256">
          <mxGeometry x="30" y="320" width="120" height="50" as="geometry" />
        </mxCell>
        <mxCell id="mtToMyqUitV6mDAlZwtL-280" value="" style="edgeStyle=orthogonalEdgeStyle;html=1;verticalAlign=bottom;endArrow=open;endSize=8;strokeColor=#ff0000;rounded=0;" edge="1" source="mtToMyqUitV6mDAlZwtL-279" parent="mtToMyqUitV6mDAlZwtL-256">
          <mxGeometry relative="1" as="geometry">
            <mxPoint x="90" y="420" as="targetPoint" />
          </mxGeometry>
        </mxCell>
        <mxCell id="mtToMyqUitV6mDAlZwtL-281" value="ghi nhận theo &lt;br&gt;trạng thái ghi nhận" style="rounded=1;whiteSpace=wrap;html=1;arcSize=40;fontColor=#000000;fillColor=#ffffc0;strokeColor=#ff0000;" vertex="1" parent="mtToMyqUitV6mDAlZwtL-256">
          <mxGeometry x="30" y="420" width="120" height="40" as="geometry" />
        </mxCell>
        <mxCell id="mtToMyqUitV6mDAlZwtL-282" value="" style="edgeStyle=orthogonalEdgeStyle;html=1;verticalAlign=bottom;endArrow=open;endSize=8;strokeColor=#ff0000;rounded=0;" edge="1" source="mtToMyqUitV6mDAlZwtL-281" parent="mtToMyqUitV6mDAlZwtL-256">
          <mxGeometry relative="1" as="geometry">
            <mxPoint x="90" y="520" as="targetPoint" />
          </mxGeometry>
        </mxCell>
        <mxCell id="mtToMyqUitV6mDAlZwtL-254" value="yes" style="edgeStyle=orthogonalEdgeStyle;html=1;align=left;verticalAlign=bottom;endArrow=open;endSize=8;strokeColor=#ff0000;rounded=0;entryX=0;entryY=0.5;entryDx=0;entryDy=0;" edge="1" source="mtToMyqUitV6mDAlZwtL-253" parent="mtToMyqUitV6mDAlZwtL-241" target="mtToMyqUitV6mDAlZwtL-257">
          <mxGeometry x="-1" relative="1" as="geometry">
            <mxPoint x="230" y="260" as="targetPoint" />
          </mxGeometry>
        </mxCell>
        <mxCell id="mtToMyqUitV6mDAlZwtL-266" value="" style="ellipse;html=1;shape=endState;fillColor=#000000;strokeColor=#ff0000;" vertex="1" parent="1">
          <mxGeometry x="2205" y="1850" width="30" height="30" as="geometry" />
        </mxCell>
        <mxCell id="mtToMyqUitV6mDAlZwtL-285" value="" style="group" vertex="1" connectable="0" parent="1">
          <mxGeometry x="2560" y="270" width="840" height="550" as="geometry" />
        </mxCell>
        <mxCell id="mtToMyqUitV6mDAlZwtL-283" value="" style="shape=folder;fontStyle=1;tabWidth=80;tabHeight=30;tabPosition=left;html=1;boundedLbl=1;whiteSpace=wrap;" vertex="1" parent="mtToMyqUitV6mDAlZwtL-285">
          <mxGeometry x="-10" width="850" height="550" as="geometry" />
        </mxCell>
        <mxCell id="mtToMyqUitV6mDAlZwtL-284" value="&lt;b&gt;services&lt;/b&gt;" style="text;html=1;align=center;verticalAlign=middle;resizable=0;points=[];autosize=1;strokeColor=none;fillColor=none;" vertex="1" parent="mtToMyqUitV6mDAlZwtL-285">
          <mxGeometry x="290" y="35" width="70" height="30" as="geometry" />
        </mxCell>
        <mxCell id="mtToMyqUitV6mDAlZwtL-286" value="users" style="shape=folder;fontStyle=1;tabWidth=80;tabHeight=30;tabPosition=left;html=1;boundedLbl=1;whiteSpace=wrap;" vertex="1" parent="mtToMyqUitV6mDAlZwtL-285">
          <mxGeometry x="30" y="75" width="150" height="80" as="geometry" />
        </mxCell>
        <mxCell id="mtToMyqUitV6mDAlZwtL-287" value="student" style="shape=folder;fontStyle=1;tabWidth=80;tabHeight=30;tabPosition=left;html=1;boundedLbl=1;whiteSpace=wrap;" vertex="1" parent="mtToMyqUitV6mDAlZwtL-285">
          <mxGeometry x="250" y="75" width="150" height="80" as="geometry" />
        </mxCell>
        <mxCell id="mtToMyqUitV6mDAlZwtL-289" value="" style="endArrow=open;startArrow=none;endFill=0;startFill=0;endSize=8;html=1;verticalAlign=bottom;dashed=1;labelBackgroundColor=none;rounded=0;exitX=0;exitY=0;exitDx=0;exitDy=55;exitPerimeter=0;entryX=0;entryY=0;entryDx=150;entryDy=55;entryPerimeter=0;" edge="1" parent="mtToMyqUitV6mDAlZwtL-285" source="mtToMyqUitV6mDAlZwtL-287" target="mtToMyqUitV6mDAlZwtL-286">
          <mxGeometry width="160" relative="1" as="geometry">
            <mxPoint x="240" y="285" as="sourcePoint" />
            <mxPoint x="400" y="285" as="targetPoint" />
          </mxGeometry>
        </mxCell>
        <mxCell id="mtToMyqUitV6mDAlZwtL-290" value="teacher" style="shape=folder;fontStyle=1;tabWidth=80;tabHeight=30;tabPosition=left;html=1;boundedLbl=1;whiteSpace=wrap;" vertex="1" parent="mtToMyqUitV6mDAlZwtL-285">
          <mxGeometry x="250" y="185" width="150" height="80" as="geometry" />
        </mxCell>
        <mxCell id="mtToMyqUitV6mDAlZwtL-292" value="" style="endArrow=open;startArrow=none;endFill=0;startFill=0;endSize=8;html=1;verticalAlign=bottom;dashed=1;labelBackgroundColor=none;rounded=0;exitX=0;exitY=0;exitDx=0;exitDy=55;exitPerimeter=0;entryX=0.75;entryY=1;entryDx=0;entryDy=0;entryPerimeter=0;" edge="1" parent="mtToMyqUitV6mDAlZwtL-285" source="mtToMyqUitV6mDAlZwtL-290" target="mtToMyqUitV6mDAlZwtL-286">
          <mxGeometry width="160" relative="1" as="geometry">
            <mxPoint x="260" y="140" as="sourcePoint" />
            <mxPoint x="190" y="140" as="targetPoint" />
            <Array as="points">
              <mxPoint x="143" y="240" />
            </Array>
          </mxGeometry>
        </mxCell>
        <mxCell id="mtToMyqUitV6mDAlZwtL-293" value="admin" style="shape=folder;fontStyle=1;tabWidth=80;tabHeight=30;tabPosition=left;html=1;boundedLbl=1;whiteSpace=wrap;" vertex="1" parent="mtToMyqUitV6mDAlZwtL-285">
          <mxGeometry x="250" y="295" width="150" height="80" as="geometry" />
        </mxCell>
        <mxCell id="mtToMyqUitV6mDAlZwtL-294" value="" style="endArrow=open;startArrow=none;endFill=0;startFill=0;endSize=8;html=1;verticalAlign=bottom;dashed=1;labelBackgroundColor=none;rounded=0;exitX=0;exitY=0;exitDx=0;exitDy=42.5;exitPerimeter=0;entryX=0.5;entryY=1;entryDx=0;entryDy=0;entryPerimeter=0;" edge="1" parent="mtToMyqUitV6mDAlZwtL-285" source="mtToMyqUitV6mDAlZwtL-293" target="mtToMyqUitV6mDAlZwtL-286">
          <mxGeometry width="160" relative="1" as="geometry">
            <mxPoint x="250" y="350" as="sourcePoint" />
            <mxPoint x="143" y="275" as="targetPoint" />
            <Array as="points">
              <mxPoint x="105" y="338" />
            </Array>
          </mxGeometry>
        </mxCell>
        <mxCell id="mtToMyqUitV6mDAlZwtL-295" value="subject" style="shape=folder;fontStyle=1;tabWidth=80;tabHeight=30;tabPosition=left;html=1;boundedLbl=1;whiteSpace=wrap;" vertex="1" parent="mtToMyqUitV6mDAlZwtL-285">
          <mxGeometry x="250" y="405" width="150" height="80" as="geometry" />
        </mxCell>
        <mxCell id="mtToMyqUitV6mDAlZwtL-296" value="class" style="shape=folder;fontStyle=1;tabWidth=80;tabHeight=30;tabPosition=left;html=1;boundedLbl=1;whiteSpace=wrap;" vertex="1" parent="mtToMyqUitV6mDAlZwtL-285">
          <mxGeometry x="470" y="185" width="150" height="80" as="geometry" />
        </mxCell>
        <mxCell id="mtToMyqUitV6mDAlZwtL-297" value="" style="endArrow=open;startArrow=none;endFill=0;startFill=0;endSize=8;html=1;verticalAlign=bottom;dashed=1;labelBackgroundColor=none;rounded=0;exitX=0;exitY=0;exitDx=0;exitDy=55;exitPerimeter=0;entryX=0;entryY=0;entryDx=150;entryDy=55;entryPerimeter=0;" edge="1" parent="mtToMyqUitV6mDAlZwtL-285">
          <mxGeometry width="160" relative="1" as="geometry">
            <mxPoint x="470" y="245" as="sourcePoint" />
            <mxPoint x="400" y="245" as="targetPoint" />
          </mxGeometry>
        </mxCell>
        <mxCell id="mtToMyqUitV6mDAlZwtL-298" value="" style="endArrow=open;startArrow=none;endFill=0;startFill=0;endSize=8;html=1;verticalAlign=bottom;dashed=1;labelBackgroundColor=none;rounded=0;exitX=0;exitY=0;exitDx=0;exitDy=42.5;exitPerimeter=0;entryX=0;entryY=0;entryDx=150;entryDy=55;entryPerimeter=0;" edge="1" parent="mtToMyqUitV6mDAlZwtL-285" source="mtToMyqUitV6mDAlZwtL-296" target="mtToMyqUitV6mDAlZwtL-287">
          <mxGeometry width="160" relative="1" as="geometry">
            <mxPoint x="480" y="245" as="sourcePoint" />
            <mxPoint x="410" y="245" as="targetPoint" />
            <Array as="points">
              <mxPoint x="430" y="228" />
              <mxPoint x="430" y="130" />
            </Array>
          </mxGeometry>
        </mxCell>
        <mxCell id="mtToMyqUitV6mDAlZwtL-299" value="exam" style="shape=folder;fontStyle=1;tabWidth=80;tabHeight=30;tabPosition=left;html=1;boundedLbl=1;whiteSpace=wrap;" vertex="1" parent="mtToMyqUitV6mDAlZwtL-285">
          <mxGeometry x="640" y="75" width="150" height="80" as="geometry" />
        </mxCell>
        <mxCell id="mtToMyqUitV6mDAlZwtL-300" value="" style="endArrow=open;startArrow=none;endFill=0;startFill=0;endSize=8;html=1;verticalAlign=bottom;dashed=1;labelBackgroundColor=none;rounded=0;exitX=0.5;exitY=1;exitDx=0;exitDy=0;exitPerimeter=0;entryX=0;entryY=0;entryDx=150;entryDy=55;entryPerimeter=0;" edge="1" parent="mtToMyqUitV6mDAlZwtL-285" source="mtToMyqUitV6mDAlZwtL-299" target="mtToMyqUitV6mDAlZwtL-296">
          <mxGeometry width="160" relative="1" as="geometry">
            <mxPoint x="680" y="185" as="sourcePoint" />
            <mxPoint x="610" y="185" as="targetPoint" />
            <Array as="points">
              <mxPoint x="715" y="240" />
            </Array>
          </mxGeometry>
        </mxCell>
        <mxCell id="mtToMyqUitV6mDAlZwtL-301" value="attendance" style="shape=folder;fontStyle=1;tabWidth=80;tabHeight=30;tabPosition=left;html=1;boundedLbl=1;whiteSpace=wrap;" vertex="1" parent="mtToMyqUitV6mDAlZwtL-285">
          <mxGeometry x="640" y="285" width="150" height="80" as="geometry" />
        </mxCell>
        <mxCell id="mtToMyqUitV6mDAlZwtL-302" value="" style="endArrow=open;startArrow=none;endFill=0;startFill=0;endSize=8;html=1;verticalAlign=bottom;dashed=1;labelBackgroundColor=none;rounded=0;exitX=0;exitY=0;exitDx=0;exitDy=55;exitPerimeter=0;entryX=0.792;entryY=0.967;entryDx=0;entryDy=0;entryPerimeter=0;" edge="1" parent="mtToMyqUitV6mDAlZwtL-285" source="mtToMyqUitV6mDAlZwtL-301" target="mtToMyqUitV6mDAlZwtL-296">
          <mxGeometry width="160" relative="1" as="geometry">
            <mxPoint x="725" y="165" as="sourcePoint" />
            <mxPoint x="630" y="250" as="targetPoint" />
            <Array as="points">
              <mxPoint x="590" y="340" />
            </Array>
          </mxGeometry>
        </mxCell>
        <mxCell id="mtToMyqUitV6mDAlZwtL-304" value="" style="endArrow=open;startArrow=none;endFill=0;startFill=0;endSize=8;html=1;verticalAlign=bottom;dashed=1;labelBackgroundColor=none;rounded=0;exitX=0.25;exitY=1;exitDx=0;exitDy=0;exitPerimeter=0;entryX=0.5;entryY=1;entryDx=0;entryDy=0;entryPerimeter=0;" edge="1" parent="mtToMyqUitV6mDAlZwtL-285" source="mtToMyqUitV6mDAlZwtL-296" target="mtToMyqUitV6mDAlZwtL-295">
          <mxGeometry width="160" relative="1" as="geometry">
            <mxPoint x="520" y="385" as="sourcePoint" />
            <mxPoint x="450" y="385" as="targetPoint" />
            <Array as="points">
              <mxPoint x="508" y="515" />
              <mxPoint x="325" y="515" />
            </Array>
          </mxGeometry>
        </mxCell>
        <mxCell id="mtToMyqUitV6mDAlZwtL-324" value="" style="endArrow=open;startArrow=none;endFill=0;startFill=0;endSize=8;html=1;verticalAlign=bottom;dashed=1;labelBackgroundColor=none;rounded=0;exitX=0;exitY=0;exitDx=150;exitDy=55;exitPerimeter=0;entryX=0;entryY=0;entryDx=150;entryDy=55;entryPerimeter=0;" edge="1" parent="mtToMyqUitV6mDAlZwtL-285" source="mtToMyqUitV6mDAlZwtL-295" target="mtToMyqUitV6mDAlZwtL-293">
          <mxGeometry width="160" relative="1" as="geometry">
            <mxPoint x="420" y="385" as="sourcePoint" />
            <mxPoint x="350" y="385" as="targetPoint" />
            <Array as="points">
              <mxPoint x="430" y="460" />
              <mxPoint x="430" y="350" />
            </Array>
          </mxGeometry>
        </mxCell>
        <mxCell id="mtToMyqUitV6mDAlZwtL-325" value="annoucement" style="shape=folder;fontStyle=1;tabWidth=80;tabHeight=30;tabPosition=left;html=1;boundedLbl=1;whiteSpace=wrap;" vertex="1" parent="mtToMyqUitV6mDAlZwtL-285">
          <mxGeometry x="50" y="405" width="150" height="80" as="geometry" />
        </mxCell>
        <mxCell id="mtToMyqUitV6mDAlZwtL-326" value="" style="endArrow=open;startArrow=none;endFill=0;startFill=0;endSize=8;html=1;verticalAlign=bottom;dashed=1;labelBackgroundColor=none;rounded=0;exitX=0;exitY=0;exitDx=150;exitDy=55;exitPerimeter=0;entryX=0;entryY=0;entryDx=0;entryDy=67.5;entryPerimeter=0;" edge="1" parent="mtToMyqUitV6mDAlZwtL-285" source="mtToMyqUitV6mDAlZwtL-325" target="mtToMyqUitV6mDAlZwtL-293">
          <mxGeometry width="160" relative="1" as="geometry">
            <mxPoint x="230" y="415" as="sourcePoint" />
            <mxPoint x="160" y="415" as="targetPoint" />
            <Array as="points">
              <mxPoint x="220" y="460" />
              <mxPoint x="220" y="363" />
            </Array>
          </mxGeometry>
        </mxCell>
        <mxCell id="mtToMyqUitV6mDAlZwtL-327" value="tuition" style="shape=folder;fontStyle=1;tabWidth=80;tabHeight=30;tabPosition=left;html=1;boundedLbl=1;whiteSpace=wrap;" vertex="1" parent="mtToMyqUitV6mDAlZwtL-285">
          <mxGeometry x="640" y="415" width="150" height="80" as="geometry" />
        </mxCell>
        <mxCell id="mtToMyqUitV6mDAlZwtL-328" value="" style="endArrow=open;startArrow=none;endFill=0;startFill=0;endSize=8;html=1;verticalAlign=bottom;dashed=1;labelBackgroundColor=none;rounded=0;exitX=0;exitY=0;exitDx=0;exitDy=55;exitPerimeter=0;entryX=0.5;entryY=1;entryDx=0;entryDy=0;entryPerimeter=0;" edge="1" parent="mtToMyqUitV6mDAlZwtL-285" source="mtToMyqUitV6mDAlZwtL-327" target="mtToMyqUitV6mDAlZwtL-296">
          <mxGeometry width="160" relative="1" as="geometry">
            <mxPoint x="591" y="483" as="sourcePoint" />
            <mxPoint x="540" y="405" as="targetPoint" />
            <Array as="points">
              <mxPoint x="545" y="470" />
            </Array>
          </mxGeometry>
        </mxCell>
      </root>
    </mxGraphModel>
  </diagram>
</mxfile>
